<?xml version="1.0" encoding="UTF-8" standalone="no"?>
<svg
   xmlns:dc="http://purl.org/dc/elements/1.1/"
   xmlns:cc="http://creativecommons.org/ns#"
   xmlns:rdf="http://www.w3.org/1999/02/22-rdf-syntax-ns#"
   xmlns:svg="http://www.w3.org/2000/svg"
   xmlns="http://www.w3.org/2000/svg"
   xmlns:xlink="http://www.w3.org/1999/xlink"
   width="779.01569"
   version="1.1"
   id="svg2"
   viewBox="0 0 779.01569 125.01091"
   height="125.0125">
  <metadata
     id="metadata54">
    <rdf:RDF>
      <cc:Work
         rdf:about="">
        <dc:format>image/svg+xml</dc:format>
        <dc:type
           rdf:resource="http://purl.org/dc/dcmitype/StillImage" />
        <dc:title></dc:title>
      </cc:Work>
    </rdf:RDF>
  </metadata>
  <defs
     id="defs4">
    <clipPath
       id="clipPath120">
      <path
         id="path7"
         d="m 88,332 594,0 0,-3 -594,0 0,3" />
    </clipPath>
    <clipPath
       id="clipPath72">
      <path
         id="path10"
         d="m 81.52,311.57 585.04,0 0,-19.937 -585.04,0 0,19.937" />
    </clipPath>
    <clipPath
       id="clipPath24">
      <path
         id="path13"
         d="m 99.59,448 623.23,0 0,-100 -623.23,0 0,100" />
    </clipPath>
    <clipPath
       id="clipPath16">
      <path
         id="path16"
         d="M 0,800 800,800 800,0 0,0 0,800" />
    </clipPath>
    <linearGradient
       xlink:href="#linearGradient48"
       id="linearGradient96"
       gradientUnits="userSpaceOnUse"
       x2="665.57001"
       x1="80.519997" />
    <linearGradient
       id="linearGradient48"
       gradientUnits="userSpaceOnUse"
       x2="721.83002"
       x1="98.589996">
      <stop
         id="stop20"
         stop-color="#cc6000" />
      <stop
         id="stop22"
         stop-color="#fd0"
         offset=".72" />
      <stop
         id="stop24"
         stop-color="#fd0"
         offset=".994" />
      <stop
         id="stop26"
         stop-color="#fd0"
         offset="1" />
    </linearGradient>
    <linearGradient
       x2="721.83002"
       x1="98.589996"
       gradientUnits="userSpaceOnUse"
       id="linearGradient4182"
       xlink:href="#linearGradient48" />
  </defs>
  <g
     id="g28"
     transform="matrix(1.25,0,0,-1.25,-123.26,562.49875)">
    <g
       id="g30"
       clip-path="url(#clipPath16)">
      <g
         style="opacity:0.15"
         id="g32"
         clip-path="url(#clipPath24)">
        <path
           id="path34"
           transform="translate(364.02,402)"
           d="M 0,0 30.692,46 50.948,46 38.037,26.517 70.357,46 94.787,46 53.039,20.719 71.209,0 49.407,0 32.94,18.864 20.261,0 0.006,0 m -57.29,0 c -5.953,0 -12.447,3.17 -7.344,10.823 l 16.931,25.514 C -41.28,46 -34.709,46 -30.687,46 l 43.06,0 -6.494,-9.663 -26.981,0 c -4.561,0 -6.958,-1.01 -9.123,-4.253 l -14.15,-21.261 29.07,0 L -8.115,0 -57.285,0 m -51.34,0 12.834,19.25 -13.297,0 c -4.871,0 -6.727,-0.773 -9.123,-3.865 L -129.962,0 l -21.415,0 18.01,21.724 c 3.479,4.175 8.195,7.191 18.323,7.191 l 25.667,0 2.087,3.169 c 2.319,3.556 -0.232,4.253 -3.02,4.253 l -28.373,0 -4.562,9.663 48.552,0 c 12.447,0 12.756,-6.417 9.586,-11.132 L -88.377,0 -108.633,0 m -80.33,28.915 18.632,0 c 3.247,0 5.566,0.695 6.726,2.396 l 1,1.469 c 1.469,2.088 -0.232,3.557 -3.788,3.557 l -17.627,0 -4.948,-7.422 z m 7.499,-18.09 c 3.247,0 5.566,1 6.571,2.552 l 1.624,2.474 c 1.159,1.778 0.154,3.401 -3.324,3.401 l -18.865,0 -5.643,-8.427 19.637,0 m -47.08,-10.823 24.2,36.34 -6.417,9.663 58.989,0 c 12.524,0 13.606,-5.02 10.514,-9.663 l -6.03,-8.969 c -1.7,-2.551 -7.653,-5.02 -11.287,-5.257 3.324,-0.696 7.19,-3.711 5.03,-7.113 l -2.706,-4.175 c -7.04,-10.901 -15.307,-10.823 -20.02,-10.823 l -52.26,0 m 535.27,45.831 -49.36,-23.406 20,-22.256 -19.924,0 -22.05,24.865 44.716,20.797 26.617,0 m -54.604,0 -49.35,-23.406 20,-22.256 -19.924,0 -22.05,24.865 44.716,20.797 26.616,0 m -95.42,-19.49 c 2.938,0 4.537,0.604 5.79,2.505 l 6.265,9.377 c 0.994,1.512 0.043,2.376 -1.815,2.376 l -6.524,0 c -2.55,0 -3.889,-0.562 -5.099,-2.376 l -6.265,-9.42 c -0.994,-1.512 -0.432,-2.462 1.685,-2.462 l 5.963,0 m -16.506,-6.05 c -3.327,0 -6.957,1.772 -4.105,6.05 l 9.506,14.258 c 3.586,5.401 7.259,5.401 9.506,5.401 l 20.654,0 c 7,0 7.605,-2.809 5.876,-5.401 l -9.506,-14.258 c -4.02,-6.05 -8.04,-6.05 -10.672,-6.05 l -21.259,0 m -37.16,0 13.525,20.308 -13.352,0 3.587,5.401 36.04,0 -3.587,-5.401 -11.363,0 -13.525,-20.308 -11.321,0 m 32.2,-20.07 8.307,12.474 -2.203,3.317 24.39,0 -2.203,-3.317 -13,0 -1.937,-2.84 10.323,0 -2.07,-3.106 -10.297,0 -1.884,-2.813 11.889,0 2.468,-3.715 -23.779,0 m -28.29,0 10.536,15.791 6.953,0 -3.928,-5.866 8.227,0 3.928,5.866 6.953,0 -10.536,-15.791 -6.953,0 4.432,6.635 -8.227,0 -4.432,-6.635 -6.953,0 m -17.942,0 8.306,12.474 -8.2,0 2.203,3.317 22.13,0 -2.202,-3.317 -6.98,0 -8.307,-12.474 -6.953,0 m 218.7,-26.16 -11.442,-17.241 16.622,0 c 5.257,0 7.963,1.161 10.205,4.485 l 11.21,16.776 c 1.779,2.706 0.232,4.253 -3.092,4.253 l -38.501,0 -6.417,9.663 60.53,0 c 12.524,0 13.607,-5.03 10.514,-9.663 l -17.01,-25.514 c -7.19,-10.823 -14.458,-10.823 -19.17,-10.823 l -52.34,0 18.632,28.06 20.255,0 m -120.53,-28.06 24.2,36.34 -6.416,9.663 60.3,0 c 12.447,0 12.988,-5.72 10.36,-9.663 l -24.2,-36.34 -20.41,0 21.492,32.08 c 1.933,2.861 0.155,4.253 -2.938,4.253 l -17.936,0 -24.2,-36.34 -20.256,0 m -75.31,0 24.2,36.34 -6.416,9.663 71.05,0 -6.417,-9.663 -37.882,0 -5.644,-8.273 30.07,0 -6.03,-9.05 -29.997,0 -5.489,-8.195 34.635,0 7.19,-10.823 -69.27,0 m -52.27,0 24.2,36.34 -23.889,0 6.417,9.663 64.48,0 -6.416,-9.663 -20.334,0 -24.2,-36.34 -20.255,0 m -98.27,0 24.2,36.34 -6.416,9.663 60.3,0 c 12.447,0 12.988,-5.72 10.359,-9.663 l -24.2,-36.34 -20.41,0 21.492,32.08 c 1.933,2.861 0.155,4.253 -2.938,4.253 l -17.936,0 -24.2,-36.34 -20.256,0 z m -37.965,10.823 c 5.257,0 8.117,1.082 10.359,4.485 l 11.211,16.776 c 1.778,2.706 0.077,4.253 -3.247,4.253 l -11.674,0 c -4.561,0 -6.958,-1 -9.123,-4.253 l -11.211,-16.854 c -1.777,-2.705 -0.772,-4.407 3.02,-4.407 l 10.669,0 m -29.533,-10.823 c -5.953,0 -12.447,3.17 -7.345,10.823 l 17.01,25.514 c 6.417,9.663 12.988,9.663 17.01,9.663 l 36.954,0 c 12.525,0 13.607,-5.03 10.515,-9.663 l -17.01,-25.514 c -7.19,-10.823 -14.38,-10.823 -19.1,-10.823 l -38.04,0 m -89.995,0 18.709,28.06 32.78,0 c 3.247,0 5.644,0.696 6.88,2.551 l 1.701,2.629 c 1.392,2.088 -0.463,3.093 -3.865,3.093 l -32.32,0 -6.417,9.663 54.43,0 c 12.524,0 13.607,-5.03 10.514,-9.663 l -5.643,-8.582 c -2.861,-4.33 -10.205,-5.257 -15.54,-5.49 5.257,-0.772 7.267,-3.324 6.417,-6.648 l -3.866,-15.617 -20.255,0 4.793,14.303 c 0.773,2.165 -0.232,4.174 -3.556,4.174 l -12.216,0 -12.292,-18.477 -20.255,0 m -68.27,0 24.2,36.34 -6.416,9.663 66.874,0 -6.417,-9.663 -33.708,0 -5.643,-8.273 29.22,0 -6.03,-9.05 -29.15,0 -12.678,-19.02 -20.256,0" />
      </g>
    </g>
    <path
       style="fill:url(#linearGradient4182)"
       id="path36"
       d="m 518.13,450 c -2.248,0 -5.92,0 -9.507,-5.401 l -9.505,-14.259 c -2.853,-4.277 0.777,-6.05 4.104,-6.05 l 21.259,0 c 2.636,0 6.655,0 10.673,6.05 l 9.505,14.259 c 1.729,2.592 1.124,5.401 -5.875,5.401 l -20.654,0 m -6.05,-17.197 6.266,9.42 c 1.209,1.815 2.549,2.376 5.098,2.376 l 6.525,0 c 1.858,0 2.808,-0.864 1.815,-2.376 l -6.266,-9.376 c -1.253,-1.902 -2.851,-2.507 -5.79,-2.507 l -5.962,0 c -2.118,0 -2.68,0.951 -1.686,2.463 M 469.82,450 l -3.586,-5.401 13.351,0 -13.524,-20.308 11.321,0 13.524,20.308 11.364,0 3.586,5.401 -36.04,0 z m -36.456,0 -32.32,-19.482 12.912,19.482 -20.256,0 -30.692,-46 20.255,0 12.678,18.864 16.468,-18.864 21.802,0 -18.17,20.719 41.747,25.281 -24.43,0 m -101.05,0 c -4.02,0 -10.592,0 -17.01,-9.663 L 298.367,414.823 C 293.264,407.17 299.759,404 305.712,404 l 49.17,0 -7.19,10.823 -29.07,0 14.15,21.26 c 2.164,3.248 4.561,4.254 9.122,4.254 l 26.982,0 6.493,9.663 -43.06,0 m -92.54,0 4.561,-9.663 28.373,0 c 2.784,0 5.335,-0.697 3.02,-4.254 l -2.088,-3.169 -25.667,0 c -10.127,0 -14.843,-3.01 -18.323,-7.19 L 211.635,404 l 21.415,0 11.751,15.386 c 2.397,3.091 4.253,3.864 9.123,3.864 l 13.297,0 -12.833,-19.25 20.256,0 23.27,34.868 c 3.17,4.715 2.861,11.132 -9.587,11.132 l -48.551,0 m -87.52,0 6.416,-9.663 -24.2,-36.34 52.26,0 c 4.716,0 12.988,-0.078 20.02,10.823 l 2.705,4.176 c 2.166,3.401 -1.7,6.416 -5.02,7.112 3.633,0.233 9.586,2.707 11.287,5.257 l 6.03,8.969 c 3.093,4.638 2.01,9.663 -10.514,9.663 l -58.988,0 m 26.75,-9.663 17.626,0 c 3.556,0 5.257,-1.469 3.788,-3.557 l -1,-1.469 c -1.159,-1.701 -3.478,-2.397 -6.726,-2.397 l -18.631,0 4.948,7.423 m -11.443,-17.09 18.864,0 c 3.479,0 4.484,-1.623 3.324,-3.401 l -1.623,-2.474 c -1,-1.547 -3.324,-2.552 -6.572,-2.552 l -19.637,0 5.644,8.427 m 475.56,26.581 -44.717,-20.797 22.05,-24.865 19.924,0 -20,22.255 49.36,23.407 -26.616,0 m -54.603,0 -44.717,-20.797 22.05,-24.865 19.925,0 -20,22.255 49.36,23.407 -26.616,0 m -84.16,-29.816 2.202,-3.318 -8.306,-12.473 23.779,0 -2.468,3.715 -11.89,0 1.884,2.814 10.298,0 2.07,3.105 -10.324,0 1.938,2.839 13,0 2.202,3.318 -24.389,0 m -8.68,0 -3.928,-5.866 -8.228,0 3.929,5.866 -6.954,0 -10.535,-15.791 6.952,0 4.433,6.635 8.227,0 -4.433,-6.635 6.954,0 10.536,15.791 -6.953,0 m -41.35,0 -2.203,-3.318 8.2,0 -8.307,-12.473 6.954,0 8.306,12.473 6.98,0 2.203,3.318 -22.13,0 m 194.98,-24.02 6.417,-9.663 38.501,0 c 3.324,0 4.871,-1.547 3.092,-4.253 l -11.21,-16.777 c -2.242,-3.323 -4.949,-4.484 -10.205,-4.484 l -16.623,0 11.443,17.241 -20.255,0 -18.633,-28.06 52.34,0 c 4.716,0 11.983,0 19.17,10.823 l 17.01,25.514 c 3.093,4.638 2.01,9.663 -10.514,9.663 l -60.53,0 m -81.34,0 6.417,-9.663 -24.2,-36.34 20.255,0 24.2,36.34 17.937,0 c 3.093,0 4.87,-1.392 2.938,-4.253 l -21.493,-32.08 20.41,0 24.2,36.34 c 2.629,3.943 2.088,9.663 -10.359,9.663 l -60.3,0 m -74.15,0 -64.48,0 -6.417,-9.663 23.889,0 -24.2,-36.34 20.255,0 24.2,36.34 20.333,0 5.839,8.793 5.839,-8.793 -24.2,-36.34 69.27,0 -7.19,10.823 -34.635,0 5.488,8.195 29.998,0 6.03,9.05 -30.07,0 5.644,8.273 37.882,0 6.418,9.663 -69.894,0 m -151.69,0 6.416,-9.663 -24.2,-36.34 20.257,0 24.2,36.34 17.937,0 c 3.093,0 4.871,-1.392 2.938,-4.253 l -21.492,-32.08 20.409,0 24.2,36.34 c 2.629,3.943 2.087,9.663 -10.36,9.663 l -60.3,0 m -58.61,0 c -4.02,0 -10.592,0 -17.01,-9.663 l -17.01,-25.514 c -5.102,-7.653 1.393,-10.823 7.345,-10.823 l 38.04,0 c 4.716,0 11.906,0 19.1,10.823 l 17.01,25.514 c 3.093,4.638 2.01,9.663 -10.514,9.663 l -36.955,0 m -10.824,-30.769 11.211,16.853 c 2.164,3.248 4.561,4.253 9.122,4.253 l 11.675,0 c 3.323,0 5.02,-1.547 3.246,-4.253 l -11.21,-16.777 c -2.242,-3.402 -5.102,-4.484 -10.36,-4.484 l -10.669,0 c -3.788,0 -4.792,1.702 -3.01,4.408 m -88.37,30.769 6.417,-9.663 32.32,0 c 3.402,0 5.257,-1 3.865,-3.093 l -1.701,-2.629 c -1.237,-1.855 -3.633,-2.551 -6.88,-2.551 l -32.78,0 -18.71,-28.06 20.256,0 12.292,18.477 12.215,0 c 3.325,0 4.33,-2.01 3.557,-4.174 l -4.794,-14.303 20.256,0 3.866,15.617 c 0.85,3.324 -1.161,5.876 -6.418,6.648 5.335,0.232 12.679,1.16 15.541,5.49 l 5.643,8.582 c 3.093,4.638 2.01,9.663 -10.515,9.663 l -54.43,0 z m -67.961,0 6.417,-9.663 -24.2,-36.34 20.256,0 12.679,19.02 29.15,0 6.03,9.05 -29.22,0 5.644,8.273 33.708,0 6.416,9.663 -66.874,0" />
    <g
       id="g38"
       clip-path="url(#clipPath16)">
      <g
         style="opacity:0.15"
         id="g40"
         clip-path="url(#clipPath72)" />
    </g>
  </g>
</svg>
