<svg xmlns="http://www.w3.org/2000/svg" height="197.96" viewBox="0 0 802.87903 197.9575" xmlns:xlink="http://www.w3.org/1999/xlink">
 <defs>
  <clipPath id="clipPath120">
   <path d="m88 332h594v-3h-594v3"/>
  </clipPath>
  <clipPath id="clipPath72">
   <path d="m81.52 311.57h585.04v-19.937h-585.04v19.937"/>
  </clipPath>
  <clipPath id="clipPath24">
   <path d="m99.59 448h623.23v-100h-623.23v100"/>
  </clipPath>
  <clipPath id="clipPath16">
   <path d="m0 800h800v-800h-800v800"/>
  </clipPath>
  <linearGradient x1="80.52" x2="665.57" gradientUnits="userSpaceOnUse" id="linearGradient96" xlink:href="#linearGradient48"/>
  <linearGradient x1="98.59" x2="721.83" gradientUnits="userSpaceOnUse" id="linearGradient48">
   <stop stop-color="#cc6000"/>
   <stop offset=".72" stop-color="#fd0"/>
   <stop offset=".994" stop-color="#fd0"/>
   <stop offset="1" stop-color="#fd0"/>
  </linearGradient>
 </defs>
 <g transform="matrix(1.25 0 0-1.25-100.65 562.5)">
  <g clip-path="url(#clipPath16)">
   <g clip-path="url(#clipPath24)" opacity=".15">
    <path d="m0 0l30.692 46h20.256l-12.911-19.483 32.32 19.483h24.43l-41.748-25.281 18.17-20.719h-21.802l-16.467 18.864-12.679-18.864h-20.255m-57.29 0c-5.953 0-12.447 3.17-7.344 10.823l16.931 25.514c6.417 9.663 12.988 9.663 17.01 9.663h43.06l-6.494-9.663h-26.981c-4.561 0-6.958-1.01-9.123-4.253l-14.15-21.261h29.07l7.19-10.823h-49.17m-51.34 0l12.834 19.25h-13.297c-4.871 0-6.727-.773-9.123-3.865l-11.751-15.385h-21.415l18.01 21.724c3.479 4.175 8.195 7.191 18.323 7.191h25.667l2.087 3.169c2.319 3.556-.232 4.253-3.02 4.253h-28.373l-4.562 9.663h48.552c12.447 0 12.756-6.417 9.586-11.132l-23.27-34.868h-20.256m-80.33 28.915h18.632c3.247 0 5.566.695 6.726 2.396l1 1.469c1.469 2.088-.232 3.557-3.788 3.557h-17.627l-4.948-7.422zm7.499-18.09c3.247 0 5.566 1 6.571 2.552l1.624 2.474c1.159 1.778.154 3.401-3.324 3.401h-18.865l-5.643-8.427h19.637m-47.08-10.823l24.2 36.34-6.417 9.663h58.989c12.524 0 13.606-5.02 10.514-9.663l-6.03-8.969c-1.7-2.551-7.653-5.02-11.287-5.257 3.324-.696 7.19-3.711 5.03-7.113l-2.706-4.175c-7.04-10.901-15.307-10.823-20.02-10.823h-52.26m535.27 45.831l-49.36-23.406 20-22.256h-19.924l-22.05 24.865 44.716 20.797h26.617m-54.604 0l-49.35-23.406 20-22.256h-19.924l-22.05 24.865 44.716 20.797h26.616m-95.42-19.49c2.938 0 4.537.604 5.79 2.505l6.265 9.377c.994 1.512.043 2.376-1.815 2.376h-6.524c-2.55 0-3.889-.562-5.099-2.376l-6.265-9.42c-.994-1.512-.432-2.462 1.685-2.462h5.963m-16.506-6.05c-3.327 0-6.957 1.772-4.105 6.05l9.506 14.258c3.586 5.401 7.259 5.401 9.506 5.401h20.654c7 0 7.605-2.809 5.876-5.401l-9.506-14.258c-4.02-6.05-8.04-6.05-10.672-6.05h-21.259m-37.16 0l13.525 20.308h-13.352l3.587 5.401h36.04l-3.587-5.401h-11.363l-13.525-20.308h-11.321m32.2-20.07l8.307 12.474-2.203 3.317h24.39l-2.203-3.317h-13l-1.937-2.84h10.323l-2.07-3.106h-10.297l-1.884-2.813h11.889l2.468-3.715h-23.779m-28.29 0l10.536 15.791h6.953l-3.928-5.866h8.227l3.928 5.866h6.953l-10.536-15.791h-6.953l4.432 6.635h-8.227l-4.432-6.635h-6.953m-17.942 0l8.306 12.474h-8.2l2.203 3.317h22.13l-2.202-3.317h-6.98l-8.307-12.474h-6.953m218.7-26.16l-11.442-17.241h16.622c5.257 0 7.963 1.161 10.205 4.485l11.21 16.776c1.779 2.706.232 4.253-3.092 4.253h-38.501l-6.417 9.663h60.53c12.524 0 13.607-5.03 10.514-9.663l-17.01-25.514c-7.19-10.823-14.458-10.823-19.17-10.823h-52.34l18.632 28.06h20.255m-120.53-28.06l24.2 36.34-6.416 9.663h60.3c12.447 0 12.988-5.72 10.36-9.663l-24.2-36.34h-20.41l21.492 32.08c1.933 2.861.155 4.253-2.938 4.253h-17.936l-24.2-36.34h-20.256m-75.31 0l24.2 36.34-6.416 9.663h71.05l-6.417-9.663h-37.882l-5.644-8.273h30.07l-6.03-9.05h-29.997l-5.489-8.195h34.635l7.19-10.823h-69.27m-52.27 0l24.2 36.34h-23.889l6.417 9.663h64.48l-6.416-9.663h-20.334l-24.2-36.34h-20.255m-98.27 0l24.2 36.34-6.416 9.663h60.3c12.447 0 12.988-5.72 10.359-9.663l-24.2-36.34h-20.41l21.492 32.08c1.933 2.861.155 4.253-2.938 4.253h-17.936l-24.2-36.34h-20.256zm-37.965 10.823c5.257 0 8.117 1.082 10.359 4.485l11.211 16.776c1.778 2.706.077 4.253-3.247 4.253h-11.674c-4.561 0-6.958-1-9.123-4.253l-11.211-16.854c-1.777-2.705-.772-4.407 3.02-4.407h10.669m-29.533-10.823c-5.953 0-12.447 3.17-7.345 10.823l17.01 25.514c6.417 9.663 12.988 9.663 17.01 9.663h36.954c12.525 0 13.607-5.03 10.515-9.663l-17.01-25.514c-7.19-10.823-14.38-10.823-19.1-10.823h-38.04m-89.995 0l18.709 28.06h32.78c3.247 0 5.644.696 6.88 2.551l1.701 2.629c1.392 2.088-.463 3.093-3.865 3.093h-32.32l-6.417 9.663h54.43c12.524 0 13.607-5.03 10.514-9.663l-5.643-8.582c-2.861-4.33-10.205-5.257-15.54-5.49 5.257-.772 7.267-3.324 6.417-6.648l-3.866-15.617h-20.255l4.793 14.303c.773 2.165-.232 4.174-3.556 4.174h-12.216l-12.292-18.477h-20.255m-68.27 0l24.2 36.34-6.416 9.663h66.874l-6.417-9.663h-33.708l-5.643-8.273h29.22l-6.03-9.05h-29.15l-12.678-19.02h-20.256" transform="translate(364.02 402)"/>
   </g>
  </g>
  <path d="m518.13 450c-2.248 0-5.92 0-9.507-5.401l-9.505-14.259c-2.853-4.277.777-6.05 4.104-6.05h21.259c2.636 0 6.655 0 10.673 6.05l9.505 14.259c1.729 2.592 1.124 5.401-5.875 5.401h-20.654m-6.05-17.197l6.266 9.42c1.209 1.815 2.549 2.376 5.098 2.376h6.525c1.858 0 2.808-.864 1.815-2.376l-6.266-9.376c-1.253-1.902-2.851-2.507-5.79-2.507h-5.962c-2.118 0-2.68.951-1.686 2.463m-42.26 17.197l-3.586-5.401h13.351l-13.524-20.308h11.321l13.524 20.308h11.364l3.586 5.401h-36.04zm-36.456 0l-32.32-19.482 12.912 19.482h-20.256l-30.692-46h20.255l12.678 18.864 16.468-18.864h21.802l-18.17 20.719 41.747 25.281h-24.43m-101.05 0c-4.02 0-10.592 0-17.01-9.663l-16.931-25.514c-5.103-7.653 1.392-10.823 7.345-10.823h49.17l-7.19 10.823h-29.07l14.15 21.26c2.164 3.248 4.561 4.254 9.122 4.254h26.982l6.493 9.663h-43.06m-92.54 0l4.561-9.663h28.373c2.784 0 5.335-.697 3.02-4.254l-2.088-3.169h-25.667c-10.127 0-14.843-3.01-18.323-7.19l-18.01-21.724h21.415l11.751 15.386c2.397 3.091 4.253 3.864 9.123 3.864h13.297l-12.833-19.25h20.256l23.27 34.868c3.17 4.715 2.861 11.132-9.587 11.132h-48.551m-87.52 0l6.416-9.663-24.2-36.34h52.26c4.716 0 12.988-.078 20.02 10.823l2.705 4.176c2.166 3.401-1.7 6.416-5.02 7.112 3.633.233 9.586 2.707 11.287 5.257l6.03 8.969c3.093 4.638 2.01 9.663-10.514 9.663h-58.988m26.75-9.663h17.626c3.556 0 5.257-1.469 3.788-3.557l-1-1.469c-1.159-1.701-3.478-2.397-6.726-2.397h-18.631l4.948 7.423m-11.443-17.09h18.864c3.479 0 4.484-1.623 3.324-3.401l-1.623-2.474c-1-1.547-3.324-2.552-6.572-2.552h-19.637l5.644 8.427m475.56 26.581l-44.717-20.797 22.05-24.865h19.924l-20 22.255 49.36 23.407h-26.616m-54.603 0l-44.717-20.797 22.05-24.865h19.925l-20 22.255 49.36 23.407h-26.616m-84.16-29.816l2.202-3.318-8.306-12.473h23.779l-2.468 3.715h-11.89l1.884 2.814h10.298l2.07 3.105h-10.324l1.938 2.839h13l2.202 3.318h-24.389m-8.68 0l-3.928-5.866h-8.228l3.929 5.866h-6.954l-10.535-15.791h6.952l4.433 6.635h8.227l-4.433-6.635h6.954l10.536 15.791h-6.953m-41.35 0l-2.203-3.318h8.2l-8.307-12.473h6.954l8.306 12.473h6.98l2.203 3.318h-22.13m194.98-24.02l6.417-9.663h38.501c3.324 0 4.871-1.547 3.092-4.253l-11.21-16.777c-2.242-3.323-4.949-4.484-10.205-4.484h-16.623l11.443 17.241h-20.255l-18.633-28.06h52.34c4.716 0 11.983 0 19.17 10.823l17.01 25.514c3.093 4.638 2.01 9.663-10.514 9.663h-60.53m-81.34 0l6.417-9.663-24.2-36.34h20.255l24.2 36.34h17.937c3.093 0 4.87-1.392 2.938-4.253l-21.493-32.08h20.41l24.2 36.34c2.629 3.943 2.088 9.663-10.359 9.663h-60.3m-74.15 0h-64.48l-6.417-9.663h23.889l-24.2-36.34h20.255l24.2 36.34h20.333l5.839 8.793 5.839-8.793-24.2-36.34h69.27l-7.19 10.823h-34.635l5.488 8.195h29.998l6.03 9.05h-30.07l5.644 8.273h37.882l6.418 9.663h-69.894m-151.69 0l6.416-9.663-24.2-36.34h20.257l24.2 36.34h17.937c3.093 0 4.871-1.392 2.938-4.253l-21.492-32.08h20.409l24.2 36.34c2.629 3.943 2.087 9.663-10.36 9.663h-60.3m-58.61 0c-4.02 0-10.592 0-17.01-9.663l-17.01-25.514c-5.102-7.653 1.393-10.823 7.345-10.823h38.04c4.716 0 11.906 0 19.1 10.823l17.01 25.514c3.093 4.638 2.01 9.663-10.514 9.663h-36.955m-10.824-30.769l11.211 16.853c2.164 3.248 4.561 4.253 9.122 4.253h11.675c3.323 0 5.02-1.547 3.246-4.253l-11.21-16.777c-2.242-3.402-5.102-4.484-10.36-4.484h-10.669c-3.788 0-4.792 1.702-3.01 4.408m-88.37 30.769l6.417-9.663h32.32c3.402 0 5.257-1 3.865-3.093l-1.701-2.629c-1.237-1.855-3.633-2.551-6.88-2.551h-32.78l-18.71-28.06h20.256l12.292 18.477h12.215c3.325 0 4.33-2.01 3.557-4.174l-4.794-14.303h20.256l3.866 15.617c.85 3.324-1.161 5.876-6.418 6.648 5.335.232 12.679 1.16 15.541 5.49l5.643 8.582c3.093 4.638 2.01 9.663-10.515 9.663h-54.43zm-67.961 0l6.417-9.663-24.2-36.34h20.256l12.679 19.02h29.15l6.03 9.05h-29.22l5.644 8.273h33.708l6.416 9.663h-66.874" fill="url(#linearGradient48)"/>
  <g clip-path="url(#clipPath16)">
   <g clip-path="url(#clipPath72)" opacity=".15">
    <path d="m0 0l10.487 15.749-2.781 4.188h21.948c1.944 0 3.351-.837 3.786-1.742.939.837 2.28 1.742 5.03 1.742h14.241c5.395 0 5.663-2.479 4.523-4.188l-10.454-15.749h-8.779l9.248 13.906c.771 1.173.134 1.843-1.374 1.843h-7.572l-10.522-15.749h-8.779l9.281 13.939c.771 1.14 0 1.81-1.374 1.81h-7.639l-10.489-15.749h-8.778m-16.09 0l5.563 8.344h-5.764c-2.11 0-2.915-.335-3.954-1.676l-5.093-6.668h-9.282l7.807 9.416c1.508 1.81 3.552 3.116 7.942 3.116h11.125l.905 1.374c1 1.541-.1 1.843-1.308 1.843h-12.296l-1.978 4.188h21.04c5.396 0 5.529-2.781 4.155-4.825l-10.09-15.11h-8.779m-49.661 0l10.487 15.749-2.781 4.188h30.795l-2.781-4.188h-16.419l-2.447-3.586h13.03l-2.614-3.92h-13l-2.38-3.552h15.01l3.117-4.691h-30.02m-22.755 0l10.487 15.749h-10.353l2.781 4.188h27.945l-2.78-4.188h-8.813l-10.488-15.749h-8.779m-42.593 12.163l-4.96-7.472h7.205c2.279 0 3.452.502 4.423 1.944l4.859 7.271c.77 1.173.1 1.843-1.34 1.843h-16.688l-2.781 4.188h26.24c5.428 0 5.898-2.177 4.557-4.188l-7.371-11.06c-3.117-4.691-6.267-4.691-8.311-4.691h-22.685l8.08 12.163h8.779zm-52.24-12.163l10.487 15.749-2.781 4.188h26.14c5.394 0 5.63-2.479 4.49-4.188l-10.488-15.749h-8.846l9.316 13.906c.836 1.24.066 1.843-1.274 1.843h-7.774l-10.489-15.749h-8.778m-32.641 0l10.489 15.749-2.781 4.188h30.794l-2.781-4.188h-16.42l-2.445-3.586h13.03l-2.613-3.92h-13l-2.38-3.552h15.01l3.116-4.691h-30.02m-22.753 0l10.488 15.749h-10.354l2.782 4.188h27.945l-2.78-4.188h-8.813l-10.489-15.749h-8.779m-42.592 0l10.489 15.749-2.782 4.188h26.14c5.395 0 5.629-2.479 4.49-4.188l-10.489-15.749h-8.846l9.316 13.906c.838 1.24.067 1.843-1.274 1.843h-7.774l-10.487-15.749h-8.78m-16.454 4.691c2.278 0 3.518.469 4.49 1.944l4.858 7.271c.771 1.173.034 1.843-1.407 1.843h-5.059c-1.978 0-3.02-.436-3.955-1.843l-4.858-7.304c-.771-1.173-.335-1.911 1.307-1.911h4.624m-12.801-4.691c-2.58 0-5.395 1.374-3.183 4.691l7.372 11.06c2.781 4.188 5.629 4.188 7.372 4.188h16.02c5.428 0 5.897-2.177 4.557-4.188l-7.372-11.06c-3.116-4.691-6.232-4.691-8.277-4.691h-16.486m-39.01 0l8.109 12.163h14.207c1.408 0 2.447.302 2.983 1.107l.737 1.138c.603.905-.201 1.341-1.676 1.341h-14.01l-2.781 4.188h23.59c5.428 0 5.897-2.177 4.557-4.188l-2.446-3.72c-1.24-1.876-4.423-2.278-6.735-2.379 2.278-.335 3.15-1.44 2.781-2.881l-1.675-6.769h-8.78l2.078 6.199c.335.939-.101 1.81-1.542 1.81h-5.294l-5.328-8.01h-8.779m-29.59 0l10.488 15.749-2.781 4.188h28.985l-2.782-4.188h-14.609l-2.446-3.586h12.666l-2.614-3.92h-12.632l-5.496-8.243h-8.779m-49.596 0l8.109 12.163h14.208c1.407 0 2.446.302 2.982 1.107l.738 1.138c.603.905-.202 1.341-1.676 1.341h-14.01l-2.781 4.188h23.59c5.428 0 5.898-2.177 4.557-4.188l-2.446-3.72c-1.239-1.876-4.423-2.278-6.735-2.379 2.279-.335 3.15-1.44 2.781-2.881l-1.675-6.769h-8.779l2.077 6.199c.335.939-.1 1.81-1.541 1.81h-5.295l-5.327-8.01h-8.78m-29.992 0c-2.58 0-5.395 1.374-3.183 4.691l10.153 15.246h8.779l-8.88-13.335c-.771-1.173-.369-1.911 1.307-1.911h4.59c2.279 0 3.519.469 4.491 1.944l8.879 13.302h8.779l-10.152-15.246c-3.117-4.691-6.233-4.691-8.277-4.691h-16.486m-22.62 4.691c2.278 0 3.518.469 4.489 1.944l4.859 7.271c.771 1.173.034 1.843-1.407 1.843h-5.06c-1.977 0-3.02-.436-3.954-1.843l-4.858-7.304c-.771-1.173-.335-1.911 1.306-1.911h4.625m-12.801-4.691c-2.58 0-5.395 1.374-3.183 4.691l7.372 11.06c2.781 4.188 5.629 4.188 7.372 4.188h16.02c5.428 0 5.897-2.177 4.557-4.188l-7.372-11.06c-3.116-4.691-6.232-4.691-8.276-4.691h-16.487m-8.245 19.937h8.779l-4.892-7.304c-3.116-4.658-6.266-4.692-8.31-4.692h-4.189l-5.361-7.941h-8.745l5.227 7.941h-3.351c-2.581 0-5.429 1.374-3.184 4.692l4.859 7.304h8.746l-3.652-5.495c-.771-1.172-.336-1.91 1.306-1.91h4.624c2.279 0 3.519.469 4.49 1.944l3.653 5.461" transform="translate(608.79 291.63)"/>
   </g>
  </g>
  <path d="m646.26 313.57c-2.747 0-4.088-.906-5.03-1.743-.436.905-1.842 1.743-3.785 1.743h-21.949l2.781-4.189-10.487-15.749h8.778l10.489 15.749h7.639c1.374 0 2.145-.67 1.374-1.81l-9.281-13.939h8.779l10.522 15.749h7.572c1.508 0 2.144-.67 1.374-1.843l-9.248-13.906h8.779l10.455 15.749c1.139 1.709.871 4.189-4.524 4.189h-14.241m-60.887 0l1.978-4.189h12.297c1.207 0 2.312-.302 1.307-1.843l-.905-1.374h-11.125c-4.39 0-6.434-1.306-7.941-3.116l-7.808-9.416h9.282l5.093 6.668c1.039 1.34 1.844 1.676 3.954 1.676h5.764l-5.563-8.344h8.78l10.09 15.11c1.374 2.044 1.24 4.826-4.155 4.826h-21.04m-35.22 0h-27.945l-2.781-4.189h10.353l-10.487-15.749h8.78l10.487 15.749h8.813l2.581 3.888 2.582-3.888-10.488-15.749h30.02l-3.117 4.691h-15.01l2.38 3.552h13l2.614 3.92h-13.03l2.447 3.586h16.419l2.781 4.189h-30.396m-82.74 0l2.781-4.189h16.688c1.44 0 2.11-.67 1.34-1.843l-4.859-7.271c-.971-1.442-2.145-1.944-4.423-1.944h-7.205l4.96 7.472h-8.779l-8.08-12.163h22.685c2.044 0 5.194 0 8.311 4.691l7.371 11.06c1.341 2.01.871 4.189-4.557 4.189h-26.24m-35.25 0l2.781-4.189-10.487-15.749h8.778l10.489 15.749h7.774c1.34 0 2.11-.604 1.273-1.843l-9.315-13.906h8.846l10.488 15.749c1.14 1.709.905 4.189-4.49 4.189h-26.14m-32.24 0h-27.945l-2.781-4.189h10.354l-10.488-15.749h8.779l10.489 15.749h8.812l2.581 3.888 2.581-3.888-10.489-15.749h30.02l-3.116 4.691h-15.01l2.38 3.552h13l2.613 3.92h-13.03l2.446 3.586h16.419l2.781 4.189h-30.395m-65.745 0l2.782-4.189-10.489-15.749h8.779l10.488 15.749h7.774c1.34 0 2.112-.604 1.274-1.843l-9.316-13.906h8.847l10.488 15.749c1.139 1.709.905 4.189-4.491 4.189h-26.14m-25.401 0c-1.743 0-4.591 0-7.372-4.189l-7.372-11.06c-2.211-3.318.603-4.691 3.183-4.691h16.487c2.043 0 5.16 0 8.276 4.691l7.372 11.06c1.34 2.01.871 4.189-4.558 4.189h-16.02m-4.692-13.336l4.859 7.304c.938 1.407 1.978 1.843 3.955 1.843h5.059c1.441 0 2.178-.67 1.407-1.843l-4.858-7.271c-.972-1.475-2.212-1.944-4.49-1.944h-4.624c-1.643 0-2.078.738-1.308 1.911m-38.3 13.336l2.781-4.189h14.01c1.474 0 2.278-.436 1.675-1.341l-.738-1.138c-.535-.805-1.574-1.107-2.981-1.107h-14.209l-8.108-12.163h8.779l5.328 8.01h5.295c1.441 0 1.876-.87 1.54-1.809l-2.077-6.199h8.78l1.675 6.768c.369 1.442-.503 2.547-2.781 2.882 2.312.101 5.495.503 6.735 2.379l2.446 3.72c1.34 2.01.871 4.189-4.557 4.189h-23.59zm-29.456 0l2.782-4.189-10.489-15.749h8.78l5.494 8.243h12.633l2.614 3.92h-12.666l2.446 3.586h14.609l2.781 4.189h-28.984m-49.73 0l2.781-4.189h14.01c1.474 0 2.279-.436 1.676-1.341l-.738-1.138c-.536-.805-1.575-1.107-2.982-1.107h-14.207l-8.109-12.163h8.778l5.328 8.01h5.295c1.441 0 1.877-.87 1.542-1.809l-2.078-6.199h8.779l1.675 6.768c.369 1.442-.502 2.547-2.781 2.882 2.312.101 5.496.503 6.736 2.379l2.445 3.72c1.341 2.01.871 4.189-4.557 4.189h-23.59m-11.429 0l-8.879-13.303c-.972-1.475-2.211-1.944-4.49-1.944h-4.591c-1.676 0-2.077.738-1.307 1.911l8.879 13.336h-8.778l-10.153-15.247c-2.212-3.318.603-4.691 3.182-4.691h16.487c2.044 0 5.16 0 8.277 4.691l10.153 15.247h-8.78m-49.996 0c-1.743 0-4.591 0-7.372-4.189l-7.371-11.06c-2.213-3.318.603-4.691 3.182-4.691h16.487c2.044 0 5.16 0 8.276 4.691l7.372 11.06c1.34 2.01.872 4.189-4.557 4.189h-16.02m-4.691-13.336l4.859 7.304c.938 1.407 1.976 1.843 3.953 1.843h5.06c1.441 0 2.178-.67 1.407-1.843l-4.858-7.271c-.972-1.475-2.212-1.944-4.49-1.944h-4.624c-1.642 0-2.078.738-1.307 1.911m-15.11 13.336l-3.652-5.462c-.972-1.476-2.212-1.944-4.491-1.944h-4.623c-1.643 0-2.078.738-1.307 1.91l3.652 5.496h-8.745l-4.859-7.306c-2.246-3.317.603-4.69 3.183-4.69h3.351l-5.228-7.942h8.747l5.361 7.942h4.188c2.043 0 5.194.032 8.31 4.69l4.892 7.306h-8.779z" fill="url(#linearGradient96)"/>
  <g clip-path="url(#clipPath16)">
   <g clip-path="url(#clipPath120)" opacity=".3">
    <path d="m0 0h594" fill="none" stroke="#000" stroke-width="3" stroke-miterlimit="10" transform="translate(88 330.5)"/>
   </g>
  </g>
 </g>
</svg>
