<svg xmlns="http://www.w3.org/2000/svg" xmlns:xlink="http://www.w3.org/1999/xlink" width="32" height="32" style=""><rect id="backgroundrect" width="100%" height="100%" x="0" y="0" fill="none" stroke="none"/><g class="currentLayer" style=""><title>Layer 1</title><g id="svg_1" class="" fill="#000000" fill-opacity="1">
<path fill="#000000" d="M9.3,22.7C9.5,22.9,9.7,23,10,23s0.5-0.1,0.7-0.3l5.3-5.3l5.3,5.3c0.2,0.2,0.5,0.3,0.7,0.3s0.5-0.1,0.7-0.3  c0.4-0.4,0.4-1,0-1.4L17.4,16l5.3-5.3c0.4-0.4,0.4-1,0-1.4s-1-0.4-1.4,0L16,14.6l-5.3-5.3c-0.4-0.4-1-0.4-1.4,0s-0.4,1,0,1.4  l5.3,5.3l-5.3,5.3C8.9,21.7,8.9,22.3,9.3,22.7z" id="svg_2" fill-opacity="1"/>
</g></g></svg>