<svg baseProfile="tiny" xmlns="http://www.w3.org/2000/svg" viewBox="0 0 43.208 36.436"><path fill="#6FC8C7" d="M1.152 1.302h40.625v29.875H1.152z"/><path fill="#DD2C42" d="M14.045 23.865l3.583-3.417s-3.333-4.417 0-8.5l-3.583-3.333s-7.583 7.083 0 15.25zM29.508 8.98l-3.583 3.417s3.333 4.417 0 8.5l3.583 3.333s7.584-7.083 0-15.25z"/><path fill="#fff" d="M29.402 24.527l-3.417-3.583s-4.417 3.333-8.5 0l-3.333 3.583s7.083 7.583 15.25 0zM14.152 8.886l3.417 3.583s4.416-3.334 8.5 0L29.4 8.885s-7.084-7.584-15.25 0z"/><path d="M42.506.69C42.04.23 41.476 0 40.818 0H2.39C1.732 0 1.17.23.702.69.234 1.15 0 1.718 0 2.39v27.696c0 .67.234 1.237.702 1.698.467.46 1.03.69 1.69.69h12.046c.098.426.304.803.63 1.125.35.344.755.56 1.213.646h-3.193c-.303 0-.56.11-.77.326-.212.216-.317.476-.317.78 0 .302.105.56.316.77.21.21.467.315.77.315h17.036c.303 0 .56-.105.77-.316s.316-.466.316-.77-.106-.562-.316-.78-.467-.325-.77-.325h-3.194c.457-.086.86-.302 1.212-.647.327-.322.533-.7.63-1.124H40.82c.658 0 1.22-.23 1.69-.69.467-.462.7-1.027.7-1.7V2.39c0-.672-.234-1.24-.702-1.7zm-1.49 29.395c0 .132-.066.197-.197.197H2.39c-.132 0-.198-.066-.198-.197V2.39c0-.133.066-.198.197-.198h38.43c.13 0 .196.066.196.197v27.695zm-1.81-5.988l-4.112-3.547c-.17-.146-.408-.177-.61-.08-.196.095-.323.305-.313.528l.256 5.512c.01.19.113.362.277.457.164.095.365.1.534.015l1.43-.73.952 1.867c.14.274.475.383.75.243s.384-.476.244-.75l-.95-1.867 1.43-.73c.166-.083.28-.245.3-.43.024-.183-.047-.367-.188-.49zM30.004 8.208C27.76 5.965 24.78 4.73 21.608 4.73c-3.173 0-6.154 1.235-8.397 3.478-2.242 2.243-3.478 5.225-3.478 8.397s1.235 6.154 3.48 8.396c2.242 2.244 5.224 3.48 8.396 3.48 3.172 0 6.153-1.236 8.396-3.48 4.63-4.628 4.63-12.16 0-16.792zm-.743 14.637l-2.237-2.238c1.754-2.37 1.754-5.633 0-8.004l2.238-2.238c2.956 3.62 2.956 8.86 0 12.48zm-11.007-9.593c.896-.896 2.087-1.39 3.354-1.39s2.458.494 3.354 1.39c1.85 1.85 1.85 4.858 0 6.707-.895.895-2.086 1.388-3.353 1.388s-2.457-.494-3.354-1.39c-1.848-1.848-1.848-4.857 0-6.706zm9.594-4.3l-2.237 2.236c-1.153-.856-2.54-1.325-4.003-1.325-1.462 0-2.85.47-4.003 1.325L15.367 8.95c1.758-1.437 3.938-2.22 6.24-2.22s4.482.783 6.24 2.22zm-13.894 1.413l2.238 2.238c-1.753 2.37-1.753 5.633 0 8.004l-2.237 2.237c-1.438-1.758-2.22-3.938-2.22-6.24 0-2.3.782-4.48 2.22-6.24zm1.414 13.894l2.237-2.238c1.153.856 2.54 1.325 4.003 1.325s2.85-.47 4.003-1.326l2.237 2.238c-1.758 1.438-3.938 2.22-6.24 2.22-2.302.002-4.482-.78-6.24-2.22z" fill="#333"/></svg>