<svg id="assets" xmlns="http://www.w3.org/2000/svg" viewBox="0 0 240 110"><defs><style>.cls-1{opacity:0.4;}.cls-2{fill:#181c21;}</style></defs><title>client-logo-discoverychannel</title><g class="cls-1"><path class="cls-2" d="M110.47,70.42a2.78,2.78,0,0,1,2.08,1l.9-.88a3.88,3.88,0,0,0-1.34-1,3.79,3.79,0,0,0-1.62-.36,3.66,3.66,0,0,0-1.84.49,3.44,3.44,0,0,0-1.32,1.29,3.64,3.64,0,0,0-.46,1.84,3.58,3.58,0,0,0,1,2.62,3.48,3.48,0,0,0,2.59,1,3.8,3.8,0,0,0,1.53-.29,4.81,4.81,0,0,0,1.42-1l-.88-.93a3.7,3.7,0,0,1-1,.78,2.44,2.44,0,0,1-1,.21,2.39,2.39,0,0,1-1.2-.31,2.14,2.14,0,0,1-.84-.84,2.51,2.51,0,0,1-.3-1.23,2.29,2.29,0,0,1,.67-1.67A2.21,2.21,0,0,1,110.47,70.42Z"/><polygon class="cls-2" points="124.7 72.08 121.42 72.08 121.42 69.18 120.02 69.18 120.02 76.4 121.42 76.4 121.42 73.4 124.7 73.4 124.7 76.4 126.03 76.4 126.03 69.18 124.7 69.18 124.7 72.08"/><path class="cls-2" d="M135.72,69.16l-3.19,7.23h1.39l.76-1.79h3.22l.74,1.78h1.46l-3.15-7.23Zm-.58,4.25,1.18-2.56,1.11,2.54Z"/><polygon class="cls-2" points="151.59 73.96 147.95 69.17 146.52 69.17 146.52 76.4 147.93 76.4 147.92 71.34 151.6 76.4 152.89 76.4 152.89 69.17 151.6 69.17 151.59 73.96"/><polygon class="cls-2" points="165.04 73.96 161.4 69.17 159.97 69.17 159.97 76.4 161.38 76.4 161.37 71.34 165.05 76.4 166.34 76.4 166.34 69.17 165.05 69.17 165.04 73.96"/><polygon class="cls-2" points="173.39 76.39 178.82 76.39 178.82 75.09 174.8 75.09 174.8 73.4 178.37 73.4 178.37 72.08 174.8 72.08 174.8 70.33 178.82 70.33 178.82 69.16 173.39 69.16 173.39 76.39"/><polygon class="cls-2" points="187.01 69.16 185.6 69.16 185.6 76.39 190.69 76.39 190.69 75.08 187.01 75.08 187.01 69.16"/><polygon class="cls-2" points="205.09 70.59 205.85 70.59 205.85 72.54 206.15 72.54 206.15 70.59 206.92 70.59 206.92 70.33 205.09 70.33 205.09 70.59"/><path class="cls-2" d="M208.33,71.87l-.12.35-.11-.33-.54-1.56h-.45v2.21h.29V70.65l.65,1.88h.27l.66-1.85v1.85h.29V70.33h-.4Z"/><path class="cls-2" d="M52.17,36.58H42.69v4.56a10.27,10.27,0,0,1,4.79,3.66V40.87h5.91c5,0,8.53,3.63,8.53,9.36a8.47,8.47,0,0,1-8.53,8.71H48.53a9,9,0,0,1-3.95,4.31h8.81c4.86,0,13.44-3.95,13.44-13C66.83,40.79,59.9,36.58,52.17,36.58Z"/><rect class="cls-2" x="69.46" y="43.21" width="4.72" height="20.04"/><path class="cls-2" d="M82.54,48.62c0-3.38,6.45-1.83,8.39-.19l1.82-3.19c-6-4.12-14.55-2.6-14.55,3.66,0,7.27,10.8,5,10.8,9s-7.77,1.63-9.68-.28l-2.11,3.07c6.74,4.89,16,3.45,16-3.07C93.25,50.25,82.54,52.37,82.54,48.62Z"/><path class="cls-2" d="M100,53.43c0-7.42,7.77-8.15,10.93-4l2.82-3.1c-6.12-6.72-18.38-3.08-18.38,7.14,0,9.82,12.26,14,18.51,6.62L111,57.31C108.38,61.28,100,60.67,100,53.43Z"/><path class="cls-2" d="M136.42,53.34A10.74,10.74,0,1,0,125.69,63.8,10.6,10.6,0,0,0,136.42,53.34Zm-16.79,0a6.07,6.07,0,0,1,6.21-6.44,6.35,6.35,0,0,1,6.06,6.44,6.14,6.14,0,1,1-12.27,0Z"/><polygon class="cls-2" points="146.95 58 141.57 43.21 136.59 43.21 144.85 63.53 149.04 63.53 157.21 43.21 152.37 43.21 146.95 58"/><path class="cls-2" d="M176.2,60.05l-2.73-2.4c-2.09,3.05-9.94,4.32-11.25-2.73H177c1.15-16.23-19.4-15.2-19.4-1.61C157.63,64.13,171.23,66.94,176.2,60.05Zm-3.67-8.6H162.21C163.31,45,171.78,45,172.52,51.46Z"/><path class="cls-2" d="M185.18,46.62V43.21H180.5v20h4.68V55.08c0-5.68,5.68-7.81,7.69-7.81l-1.56-3.82A9.49,9.49,0,0,0,185.18,46.62Z"/><path class="cls-2" d="M209.2,43.21,204.05,58l-4.78-14.76h-4.9l7.39,20s-1.82,5.54-3.91,5.54h-3.48v3.82h2.88c3.94,0,5.67-1.32,6.89-4.4,1.56-3.91,9.8-25,9.8-25Z"/><g id="Earth"><polygon class="cls-2" points="40.9 42.8 40.91 42.8 40.91 42.8 40.9 42.8"/><path class="cls-2" d="M37.87,45.38h0s0,0,0,.06,0,0,0,.06a.07.07,0,0,0,.11,0h0a.84.84,0,0,1,.11-.12h-.15Z"/><path class="cls-2" d="M40.89,42.79h0Z"/><path class="cls-2" d="M37,43.95s0-.05,0-.08h0c-.1.11-.12.14-.22.16a.1.1,0,0,1,.12.05s.06.07.09.07.09,0,.1-.08a.15.15,0,0,0,0-.09A.09.09,0,0,0,37,43.95Z"/><path class="cls-2" d="M45.41,45.82l-.15-.18Z"/><path class="cls-2" d="M38.7,44.49c.08,0,.13-.06.14-.16h0s-.08,0-.12-.06h0s-.05.08-.06.13a.11.11,0,0,0,0,.09Z"/><path class="cls-2" d="M44.08,44.54,44,44.45l.17.14h0Z"/><path class="cls-2" d="M38.28,42.27h0Z"/><path class="cls-2" d="M42.18,43.34l-.37-.17h0Z"/><path class="cls-2" d="M41.77,43.14l0,0h0Z"/><path class="cls-2" d="M41.84,43.17h0l0,0,0,0Z"/><path class="cls-2" d="M41.74,43.12h0Z"/><circle class="cls-2" cx="37.85" cy="42.24"/><path class="cls-2" d="M38.21,45.19a.15.15,0,0,0,0-.07c-.05,0-.08,0-.12,0a.09.09,0,0,0,0-.1c-.06-.08-.16-.11-.22-.18l0,0s0,0-.05,0,0,0,0-.05h0l-.06,0h0l-.07.12c0,.12,0,.14-.2.36h.05a.07.07,0,0,1,.07,0s.08,0,.06.1a.33.33,0,0,0,.22-.19h0a.89.89,0,0,1,.06.09.17.17,0,0,1,.1,0C38.21,45.26,38.22,45.2,38.21,45.19Z"/><rect class="cls-2" x="38.37" y="42.27" width="0.01"/><path class="cls-2" d="M38.39,42.28h0Z"/><polygon class="cls-2" points="37.86 42.24 37.85 42.24 37.85 42.24 37.86 42.24"/><path class="cls-2" d="M39.76,54.38a.08.08,0,0,0-.08.07h.09a.35.35,0,0,0,.16,0v0C39.87,54.41,39.81,54.38,39.76,54.38Z"/><path class="cls-2" d="M38.26,45.5l-.09,0h0a.12.12,0,0,0,.06.12c0-.05.05-.07.07-.11v0a.08.08,0,0,0,0,0Z"/><path class="cls-2" d="M31.52,46.86l0,0s0-.1,0-.1h0l-.05.15.06-.06Z"/><path class="cls-2" d="M31.38,47.14s0-.06,0-.07l0-.06s0,0,0,0h0l0,.09a.45.45,0,0,0,0,.22l.05-.1S31.38,47.15,31.38,47.14Z"/><path class="cls-2" d="M31.47,47.09v0h0Z"/><path class="cls-2" d="M31.21,48.35a.18.18,0,0,0,0,.17.3.3,0,0,1,0,.12s0,0,.09.11.06.1.1.11a.08.08,0,0,0,.1-.06.11.11,0,0,0,0-.07v0c0-.05-.09-.07-.11-.12a.15.15,0,0,1,0-.07.14.14,0,0,0,0-.1.33.33,0,0,0-.21-.1Z"/><path class="cls-2" d="M31.22,47.56s0-.05,0-.07a.09.09,0,0,1,0,0h0a.13.13,0,0,0,0,.07c0,.05,0,.11,0,.17l.09,0Z"/><path class="cls-2" d="M44,44.46l.06.05,0,0Z"/><path class="cls-2" d="M47.7,55.27l.05-.26c0-.14.06-.28.08-.43s.06-.38.09-.57,0-.32,0-.49,0-.43,0-.72v-.07h0v-.24h0v-.1h0v-.1h0c0-.18,0-.36,0-.54h0c0-.2-.05-.39-.09-.59h0c0-.09,0-.19,0-.28l.06.29,0-.14v-.09h0l0-.24c0-.06,0-.12,0-.18a6.76,6.76,0,0,0-.26-1l-.29-.79,0-.07a6.49,6.49,0,0,0-.31-.66l-.12-.24h0l0,0-.21-.36h0c0-.06-.15-.25-.18-.3l.18.29,0-.07L46.32,47h0l0-.07-.06-.1,0,0h0l-.1-.13,0,0,0,0L46,46.59l-.36-.46-.17-.2-.09-.1.07.08-.41-.45.05,0L45,45.35h0l-.25-.23-.23-.21-.34-.3h0a10.48,10.48,0,0,0-2.48-1.5h0l0,0-.08,0,0,0h0l-.06,0L41.33,43h.1l.06,0-.06,0-.09,0-.12,0H41l-.05,0h-.06l.05,0,.1,0h0l.31.12,0,0,.07,0a10.4,10.4,0,0,0-2.12-.61l-.13,0-.21,0,.12,0h0l-.27,0,.12,0-.19,0h0l-.37,0h0l.13,0h0l-.13,0h-.16l-.21,0h-.17l-.33,0a10.48,10.48,0,1,0,6,19c.15-.1.32-.22.54-.4l.07-.06.06,0,.08-.06.57-.52.08-.08a6.6,6.6,0,0,0,.5-.53l.08-.1.22-.27a7.37,7.37,0,0,0,.66-.93l.14-.22.09-.17c.13-.24.26-.48.37-.73l.16-.33v0l0-.06A9.36,9.36,0,0,0,47.7,55.27Zm-8.5,6.8a.19.19,0,0,1,.12-.09h0a.7.7,0,0,0,.46-.28h0c.07-.09.07-.09.06-.18s.23,0,.34-.06a4.41,4.41,0,0,0,.49-.51h0s0,0-.18.24l.07,0c.13-.15.3-.26.43-.42s.07-.2.14-.28a2,2,0,0,1,.68-.39c.14,0,.23,0,.47-.38.41-.61.41-.61.46-.79a.28.28,0,0,1,.1-.17.09.09,0,0,1,0,.05l.57-.63a.94.94,0,0,0,.14-.47s0,0-.35-.28a.2.2,0,0,0-.11,0l-.15,0h0c-.06,0-.12,0-.18,0l-.08,0a.31.31,0,0,0-.09.1.18.18,0,0,1,0-.09c-.16,0-.16,0,0,0a.33.33,0,0,0,0-.13c-.09,0-.17-.08-.26-.1h-.08l-.08,0-.08,0h0s-.09,0-.12,0a2.83,2.83,0,0,0-.25.24l0,0a.22.22,0,0,0,0,0c-.08,0-.08,0,0,0a4.05,4.05,0,0,0,.34-.46v0l-.12-.11c0-.08,0-.16,0-.23s0,0-.08,0c0-.19-.23-.14-.34-.22h0l-.08,0a.79.79,0,0,1-.47-.07V56.1a.37.37,0,0,0-.37-.22l0,0a.4.4,0,0,0-.29-.15l0-.06h.06c-.29-.12-.71.37-.88,0-.15,0-.15,0-.25-.15a.18.18,0,0,0,0,.11c0,.06-.14.06-.19.11,0,.23,0,.23,0,.25A.18.18,0,0,1,39,56l0,0c.06-.3.06-.3,0-.35a.87.87,0,0,0,.14-.12l-.1,0a6.32,6.32,0,0,1-.58.37c0,.2-.23.26-.21.46-.35-.26-.35-.26-.43-.21l.07.09-.18-.06v.06l-.07,0h-.09c-.44,0-.42-.27-.39-1a1.37,1.37,0,0,0-.41-.05s0,0,0,0-.24.1-.36,0c0-.37,0-.37.07-.4l0,0,0-.16c-.14-.17.14-.3.06-.47-.14.06-.3,0-.43.11s-.05.46-.28.6c0,0-.1-.11-.28,0-.55.33-.79-1-.79-1-.05-1.26,1-1.14,1-1.14s.11.05.14.12c.21-.09.21-.09.27-.06s0,0-.18-.2l0,0,0,0,.12,0c.2.05.43-.17.61,0l.23-.08c.23.26.23.26.17.4l.06,0a3.65,3.65,0,0,0,.26.55l.1,0c.09-.43-.32-.81-.16-1.25a10.53,10.53,0,0,1,.88-.73v-.06l-.05,0,0,0h.11l-.1-.15.07,0,0,0c0-.08-.1-.13-.15-.19a.26.26,0,0,1,.06-.11l.08.11a.43.43,0,0,0,.08-.4l.11,0a1.25,1.25,0,0,0,.15-.36h0a4.2,4.2,0,0,0,.54-.24c-.42-.57.78-.92.79-.92a.22.22,0,0,1,.11.05c-.33.29-.33.29-.22.39A1.6,1.6,0,0,1,40.5,49c-.54-.17-.6-.24-.45-.48-.17,0-.17,0-.23,0l0,0h0l0,0a.2.2,0,0,0,.14-.12c-.17-.25-.59.1-.89.36l0,0,.3-.39c.2,0,.17-.35.4-.3a4,4,0,0,0,.83-.07l.09-.05c0-.23.41-.15.35-.39s-.22-.31-.32-.48c-.08,0-.13-.05-.2-.06l-.79,0,.79,0c-.08-.05-.11-.08-.11-.14s-.13-.06-.2-.08,0-.05,0-.08h0c0-.06,0-.06-.11-.17l0,0h0a.4.4,0,0,0,0-.07,1.44,1.44,0,0,1-.36-.58h0a.17.17,0,0,1,0,.15.37.37,0,0,0,0,.07c0,.05,0,.11,0,.16s0,0-.23.16c-.09,0-.1-.16-.2-.2s-.05-.14-.07-.21,0-.12,0-.19-.14,0-.21-.07v-.07c-.09,0-.15-.13-.23-.19v0a.07.07,0,0,1-.05,0h-.13c0-.06-.27-.1-.3,0h0s0,.06,0,.12,0,.11-.06.16l.08.05c0,.08.08.12,0,.19s-.1.2-.22.23,0,0,.14.13.09.23.09.36,0,.07-.09.15a1.55,1.55,0,0,1-.43.23l.13.14c-.08.21,0,.44-.05.65a.2.2,0,0,1,0-.11l-.05,0a.12.12,0,0,0,0,.06V48c-.1,0-.11,0-.15-.14s-.1-.21-.2-.27c.1-.13,0-.3.1-.44l-.12,0c-.17.09-.21.06-.41-.11-.46,0-.47,0,0,0l-.1,0c0-.08,0-.11-.11-.14l-.3-.09a.17.17,0,0,0-.08,0c-.06,0-.08,0-.11,0,.12-.11,0-.25,0-.37l-.08,0,0,.07c-.11.13-.31.18-.36.37-.1,0-.17-.06-.26-.07a1.77,1.77,0,0,1-.19.21s0,0-.05-.08h0c-.06,0-.07.05-.1.14s-.08.14-.17.1a.51.51,0,0,0,0-.15c.07-.06.19-.05.23-.16l.29-.19,0,0a.33.33,0,0,1,.19.07c.07,0,.1-.13.18-.15h0c.38-.23.13-.88.67-1,.05-.11.2-.09.25-.2-.1-.17-.35-.06-.45-.22.22-.15.36.12.56.12l0-.11,0,0c.07.08.07.08.36-.15-.15,0-.23-.13-.35-.2v0c.15,0,.31.17.44,0l0,0v-.05l0,0,.19,0a.22.22,0,0,0,0-.12h.06c.06.11.06.11.09.13l.14-.12,0,0s0,0-.07-.27l.14,0,0-.07.06,0c-.1,0-.18-.11-.28-.16s-.07,0,0,.14l0,0a.28.28,0,0,0,0,0l-.2.28h0l-.07,0c-.1-.14.09-.31-.06-.44l0,0v.05a1.44,1.44,0,0,0-.12.11c0-.07,0-.15,0-.22l-.09,0s0-.09.09-.11a1.26,1.26,0,0,0-.08-.39l-.09.05,0,0,0,0-.06,0a.6.6,0,0,0-.15.3l.06.06c.11,0,.11,0,.14.06l0,0v0a.17.17,0,0,0-.07.07h0l0,0c0,.06,0,.06-.45,0,0,.06,0,.06,0,.15l0,0c-.17-.15-.43,0-.6-.16,0-.14,0-.14,0-.16a1,1,0,0,0-.25.06s0,.08,0,.11l0,0h0l-.1.22a.12.12,0,0,0-.06.08h0c0-.11.06-.22,0-.33a.75.75,0,0,1-.52,0l.08-.07c.19-.07.19-.07.21-.09a.47.47,0,0,0,0-.09l-.09,0c-.06-.06-.14-.1-.19-.16l0-.09s0,0-.25.08v-.05s.08-.07.13-.1l-.23.12a.33.33,0,0,1,.08-.16q.45-.13.91-.22l0,0s-.1,0-.14,0-.05,0-.09.11c.29,0,.37,0,.4.13a.19.19,0,0,1-.18,0l-.07,0h0a.64.64,0,0,0-.2,0s-.1.12,0,.16l.11,0,0,0c0,.07-.1.09-.12.15l0,0,0,0a1.26,1.26,0,0,1,.33,0c.1-.09.26-.06.36-.15l0,0s0,0,0,0,.07,0,.07.06.37,0,.31-.09,0,0,0,0,0,0-.06,0,0-.05,0-.07h0a.07.07,0,0,1,.12,0h0s0,0,0,0l0,0s0,0,0-.09l-.1-.21c.09-.08.1-.2.17-.29H37s0,.08,0,.11.09,0,.07.06,0,.13.06.18,0,0,0-.07,0,0,0-.07l0,.05s0,0,.06,0,0,0,.06,0a.2.2,0,0,1,.05-.1s0-.06,0-.08h0l0,0s0,0,0,0h-.08l0,0h.17a.72.72,0,0,0-.07.22s0,0,.05,0l.09-.06s0,0,0,0,0,0,0,0a.12.12,0,0,1,.11,0,.49.49,0,0,0,.13-.11h.19a1.34,1.34,0,0,1-.15.15c0,.08-.08.15-.09.23.18.05.18.05.19.08s-.12,0-.19,0v.08c0,.12.8.18.81.17s0-.08-.07-.13.1.06.16.07.14.14.14.25h-.06v0s0,0,.08,0a0,0,0,0,1,.06,0l.22.17s.08.2,0,.25h0c.09,0,.13,0,.17-.07s0,0,.06.09l.1,0a.14.14,0,0,1,0,.07s0,0-.09,0-.07,0-.09,0l0-.11c-.1,0-.14,0-.18,0a.23.23,0,0,0-.06.14s.06,0,.06.08l-.22.06c-.07,0-.12-.05-.19-.06s-.07.11-.08.17a.3.3,0,0,0,.13.09c.07,0,.12-.07.19-.07s.08,0,.12,0,0,0,0,0h0c.05.07.18.09.16.21h0s0,0,.05.07h0s.06.07.11.09.1,0,.14,0a.53.53,0,0,0,.3.11c-.08-.16-.27-.21-.33-.39.09,0,.13.15.25.12l.19.17s0,0,0,0l0,0c-.06-.08-.06-.08-.07-.12s0-.13,0-.19a2.77,2.77,0,0,1-.39-.38h0c.06,0,.06,0,.15.11,0-.06-.06-.1,0-.16a.27.27,0,0,0,.12.08l.06,0,0,0s0,.06,0,.09.12.08.17.13,0-.11-.05-.17.1,0,.09-.05,0-.09.08-.06,0,0,0-.07,0,0,0-.06c-.19.07-.2-.28-.39-.2,0,0,0,0-.23-.15h.09l0,0v0h.09c-.06,0-.14,0-.2-.09l.11,0-.09-.09,0,0s-.06,0-.08,0h0l0,0h-.07l0,0,0,0c0-.08-.12-.05-.16-.1l0,0s-.1,0-.1,0l.1,0-.12-.1,0,.11s0-.05-.06-.06h0s-.06,0-.08,0l0,0a.52.52,0,0,1-.1-.13.89.89,0,0,0-.18,0h0a.29.29,0,0,1,0,.06l-.05,0v.08c-.07,0-.06-.08-.12-.1l0,.1,0,0a.33.33,0,0,0,0-.27h.06s.07.07,0,.11l.06,0h0l.08,0h.12l-.09-.12a9.44,9.44,0,0,1,1.49.3.89.89,0,0,0,.12.18c0-.09,0-.1,0-.16a.57.57,0,0,0,.16.1l0,.06h0c.15.14.15.14.19.2h0c-.06-.07-.06-.07-.26-.1l.08.06a.88.88,0,0,1,.24.1h0c.08.05.08.15.12.22s0,0-.07.09h0c0,.07,0,.14,0,.2s.26.34.37.53c0,0,0-.08.11,0s-.08.1-.06.14a4.53,4.53,0,0,0,.39.51.32.32,0,0,0,.2.1s.07,0,.11,0,0,0,0,.08h0c.06.12.18,0,.26.08l0,0c-.12-.14,0-.37-.18-.49v0l.07,0,0-.08c0-.06.06-.08,0-.13s-.08-.06-.11-.11v0h0s-.06-.07-.08-.11.06-.13.15-.11-.05-.13-.08-.16a.26.26,0,0,1,.11.11c.2-.05.11-.38,0-.46a9.51,9.51,0,0,1,1.06.67h0l.15.11h0s.06.07.08.07h0a9.58,9.58,0,0,1,2,2.16h0a.59.59,0,0,0,.08.12s0,0-.1,0c.07.2.07.2.12.25s0,.16,0,.18l.09.13c.07.08.09.05.11,0s0-.08.08,0l.21.38v0l0,0,.18.38v0h0a9.43,9.43,0,0,1,.35.9l-.4-.12s0,0-.08.06a3.42,3.42,0,0,1,.1.41c0,.17-.05.35,0,.52a1.18,1.18,0,0,1,.05.27l.15,0c.08,0,0,.16.11.21s.09-.1.14-.08.12,0,.14,0a.15.15,0,0,0,0,0,.53.53,0,0,1,0-.13c0,.14,0,.28.07.43l0,.08c-.33-.11-.33-.11-.36-.18,0,.37-.1.41-.19.47-.25.17,0,.42-.12.62a1,1,0,0,1-.15.23c-.09,0-.11,0-.17.16a4.36,4.36,0,0,1-.47.9.81.81,0,0,0,0,.28l.06,0a1.8,1.8,0,0,1-.31.94c0,.06.05.08,0,.19a.39.39,0,0,0,.13.46,2.68,2.68,0,0,0,0,.61h.06c.1.15,0,.48.2.48s.19-.09.31-.08.09,0,.14.12l.25-.14A9.53,9.53,0,0,1,39.2,62.07ZM38.26,43.3s0,0,0,0h-.07s0,0,0,.05h0s0,.08,0,.09h0s0,0,0,.11l-.08,0a.1.1,0,0,0,0,.11s0,.07,0,.14v0H38c.09,0,0-.15.06-.2s0-.1.09-.23h.17l0,0Zm-1.09-.06a0,0,0,0,0,0,0s0,0,0,0a.06.06,0,0,1-.07-.06Zm-.56,0a.72.72,0,0,1-.16.22l0,0c0-.06.07-.12.09-.19ZM28,52.73a9.47,9.47,0,0,1,3-6.92l.22-.18a.45.45,0,0,1,0,.09.15.15,0,0,0,.06.07.31.31,0,0,1,0,.11h.15l.07.08.1,0c0,.06,0,.06-.09.11h0l0,0h0l-.09.14c.06.25-.1.44-.15.66.07-.09.1-.2.17-.29v.05l.07-.06a.25.25,0,0,0,.08-.16l-.15.18a1,1,0,0,0,.07-.28l.06,0v0l.18-.29-.33,1s0,0,0,0l.08-.06a1.89,1.89,0,0,1-.11.25l0,0c-.06.08-.05.2-.12.28l0,0,.11-.09v.12h-.06c-.05.22-.05.22-.08.24l0,0,.15-.08a.22.22,0,0,0,0,.11h0c-.11,0-.11,0-.12.19l-.07.07v.07l.19,0,0,0s0,0,.09,0c-.12.27.22.56,0,.82,0-.2,0-.21-.1-.26l-.06,0A11.18,11.18,0,0,1,31,50.42l.05,1,0,0,.09-.05,0,0-.14.13.08.06c-.07.23.11.4.13.61l.29.1h0l.11.12c-.07.45.37.66.47,1a.31.31,0,0,1-.1.09l0,0v0s0,0,.15.06l0,0c.21.32.21.32.19.4s.26.18.38.29h.06c0-.07,0-.07-.11-.21h-.07a5.14,5.14,0,0,1-.7-1.44l0,.05c.06.07.17,0,.23.06s.09.32.2.46.29.3.44.46l-.05.07a.39.39,0,0,0,.1.08L33,54c.25.13.71.5.56.81,0,0,1.22.9,1.75.57,0,0,0-.05,0-.07s.51.31.52.31c.17.14.38,0,.55.07a1.53,1.53,0,0,1,.46.38l0,.06.12.07s0,0,0-.06c.21.18.21.18.22.22.44.11.44.11.46.15a.22.22,0,0,0,.11-.06c0-.05,0-.12,0-.18v0h0l.14,0,.44.44a.85.85,0,0,1-.18.46s-.22.28-.32.32c.06.17-.23.38,0,.49l.12,0c.08.12,0,.17-.06.19-.19.1,0,.28,0,.28l-.05.06c.39.1.51.63.51.63.22.06.2.29.31.43s.42.24.61.4a3.16,3.16,0,0,0,0,.49l-.06,0c0,.11,0,.23-.07.34s-.1.32-.1.33c-.12.15-.07.35-.13.52a2.75,2.75,0,0,1-.21.35h0l-.09.23A9.5,9.5,0,0,1,28,52.73Z"/><path class="cls-2" d="M31.08,47.84l0-.06s0-.06,0-.07h0a.12.12,0,0,0,0,.16Z"/><path class="cls-2" d="M41.55,48.48s0,0,0-.07l-.11.06c-.05-.1.06-.15.08-.23l-.05.06c-.08,0-.09,0-.09-.05a.07.07,0,0,1,0,0l.06-.08c-.11,0-.21,0-.31,0s0-.08,0-.1-.06,0-.09,0,0,0-.07,0,0-.18.12-.24,0,0,0-.06,0,0,0-.07h0a.26.26,0,0,0-.15.16V48a3.13,3.13,0,0,1-.05.33c0,.09-.11.15-.12.25.12-.07.31.08.39-.09,0,0,0,0,0,0l.12,0-.1.15a.14.14,0,0,0,.09-.06,1.6,1.6,0,0,0,.09-.16c.06.14.06.18.05.22l0,0,0,.09c.09,0,0-.14.07-.19h0Z"/><path class="cls-2" d="M38.33,54.07c-.08,0-.17,0-.25,0s-.18-.09-.28-.1-.22-.12-.35-.12c-.52,0-.58.15-.63.28.18,0,.27-.2.45-.19s.26,0,.32.12c.23-.11.31.18.49.19l-.09.12,0,0c.15-.07.33,0,.49-.1l.06,0A1.63,1.63,0,0,0,38.33,54.07Z"/><path class="cls-2" d="M39.42,54.33a.25.25,0,0,0-.24-.12c-.17,0-.33.1-.51,0l0,0c.12,0,.16.11.13.22h-.2l-.09,0c.13.15.34-.07.46.11a.27.27,0,0,1,.14-.16c.12,0,.25,0,.37,0h0l-.07-.07Z"/><path class="cls-2" d="M38.22,54.59l-.1,0a.33.33,0,0,0-.14,0c-.05,0-.07,0-.09.09s.16,0,.24,0a.22.22,0,0,0,.12,0h0s0,0,0-.06Z"/><path class="cls-2" d="M40.5,44l-.09,0v.09c.1.08.14.09.19,0a.08.08,0,0,0,0,0S40.53,44,40.5,44Z"/><path class="cls-2" d="M40.52,55.69h0s.07,0,.08,0a.23.23,0,0,0,0,0s0,0,0,0h0C40.55,55.57,40.53,55.62,40.52,55.69Z"/><path class="cls-2" d="M40.61,48.77s0,0-.05-.09l-.06.22h.06s0,0,0,.05l.07-.07h.06l-.11-.09Z"/><path class="cls-2" d="M40.09,48.77l.14.09.08,0a.08.08,0,0,0,.09-.06v0a.41.41,0,0,1-.32-.09Z"/><path class="cls-2" d="M40.37,48.25l0,0c0-.07-.09-.09-.21-.1h0a.27.27,0,0,0,.27.11Z"/></g></g></svg>