<svg id="assets" xmlns="http://www.w3.org/2000/svg" viewBox="0 0 240 110"><defs><style>.cls-1{opacity:0.4;}.cls-2{fill:#181c21;fill-rule:evenodd;}</style></defs><title>client-logo-hbo</title><g class="cls-1"><path class="cls-2" d="M159.12,65.69a10.22,10.22,0,1,0-10.21-10.22,10.22,10.22,0,0,0,10.21,10.22Z"/><path class="cls-2" d="M159.24,28.67a26.78,26.78,0,0,0-25.28,18,25.37,25.37,0,0,0,.2-3.38,13.49,13.49,0,0,0-5.41-10.38,15.91,15.91,0,0,0-9.58-3.46H96V82.24h21.73c4.29,0,8-1.58,11.63-4.21a13.78,13.78,0,0,0,5.56-10.83c0-.19,0-.38,0-.57a26.77,26.77,0,1,0,24.34-38ZM109.53,40.89h5.67c2.76,0,5.67.48,5.67,4,.2,3.19-1.7,5.07-5.52,5.07l-5.81,0V40.89ZM120,69.28c-1.18,1-2.77.9-4.23.9h-6.31V60.49h5.75c3.48,0,6.46.9,6.61,5A5.29,5.29,0,0,1,120,69.28ZM132.8,59.11a15.36,15.36,0,0,0-4.73-3.93,10.24,10.24,0,0,0,5-4.93,27.09,27.09,0,0,0-.26,8.86Zm26.32,10.31A13.94,13.94,0,1,1,173,55.47a13.93,13.93,0,0,1-13.92,13.94Z"/><polygon class="cls-2" points="79.42 48.82 68.49 48.82 68.49 29.36 55 29.36 55 82.33 68.42 82.33 68.42 61.65 79.36 61.65 79.36 82.33 93.03 82.33 93.03 29.36 79.42 29.36 79.42 48.82 79.42 48.82"/></g></svg>