<svg id="assets" xmlns="http://www.w3.org/2000/svg" viewBox="0 0 240 110"><defs><style>.cls-1{opacity:0.4;}.cls-2{fill:#181c21;}</style></defs><title>client-logo-mtv</title><g class="cls-1"><path class="cls-2" d="M142.2,86.24a51.65,51.65,0,0,1-.4-5.7c0-1.21.16-6.07.16-10,0-3.3-.71-9.17-.71-12.37a43.47,43.47,0,0,0-.07-5.44c1.53-1,2.87-1.62,7.08-4.18,1.37-.83,4-2.23,4-3.91,0-.75-.2-1.24-1.26-2.11a3.66,3.66,0,0,0-2.43-.76c-2.15,0-3.12,2.15-4.92,3.26-2.75,1.68-4.21,2.51-4.77,2.82a5.6,5.6,0,0,0-2.67-.66c-1.57,0-3.4.71-3.4,2.75,0,.94.3,1.95-1,2.61-.7.44-4.12,2.4-7.76,4.59-3.07,1.85-4.5,1.7-5.79,2.48a2.71,2.71,0,0,0-1.51,2.4,3.72,3.72,0,0,0,.59,1.76,3.35,3.35,0,0,0,2.86,1.63c2.2,0,4-1.92,7.42-4.34,2.12-1.51,4.06-3.07,5.2-3.07s1.72.77,1.72,3.92c0,10.54-.64,12.22-.64,19.53,0,1.32,0,3.75.09,4.76h-5.59V69L117.66,78,106.89,69V86.24H72V24.76h34l11.69,12.3,11.69-12.3h34.14V51a82.72,82.72,0,0,0-6.6,13.09c-.73,1.88-1.06,3.25-2,3.25s-1.14-1-1.24-2c-.21-2-.67-5.8-.88-7.19-.41-2.69-.94-5.53-3.94-5.53a4.23,4.23,0,0,0-4.55,4.55c0,1.88,1,5.16,2.59,9.47.64,1.7,4.06,10.66,4.56,12,.9,2.38,2.16,3,4.11,3,2.5,0,3.36-.92,4.39-4.43.88-3,2.36-7.86,3.59-10.91h0V86.24Zm29.29-34.12V86.24h-5.61v-25a66,66,0,0,1,5.61-9.16Zm-5.61-4.55V24.76l5.61,3.37v12.5a71,71,0,0,0-5.61,6.94ZM120.75,30.36l-3.09,3.26-8.37-8.81,10.63,4.67.84.89Zm.37,47.87H125l1-.88V74.09l-4.92,4.14Zm-11.86,8h4.62V78l-4.62-3.89V86.24Z"/></g></svg>