<svg id="assets" xmlns="http://www.w3.org/2000/svg" viewBox="0 0 240 110"><defs><style>.cls-1{opacity:0.4;}.cls-2{fill:#181c21;fill-rule:evenodd;}</style></defs><title>client-logo-nationalgeographic</title><g class="cls-1"><path class="cls-2" d="M46.31,33.7H76.73V77.3H46.31V33.7Zm4.38,39.21H72.33V38.09H50.69V72.91Z"/><path class="cls-2" d="M96.94,53.26H95.06c-2.47-3.49-4.92-7-7.37-10.88h0V53.26H85.59V38.09h1.88c2.47,3.47,4.92,6.91,7.35,10.81h0V38.09h2.08V53.26Z"/><path class="cls-2" d="M101.89,47.26c.6-2,1.21-3.84,1.75-6.18h0c.61,2.34,1.15,4.18,1.71,6.18Zm1-9.17L97.64,53.26h2.25l1.32-4.14h4.58L107,53.26h2.91l-4.84-15.18Z"/><polygon class="cls-2" points="112.34 53.26 112.34 40.12 108.35 40.12 108.35 38.09 118.92 38.09 118.92 40.12 114.94 40.12 114.94 53.26 112.34 53.26 112.34 53.26"/><polygon class="cls-2" points="119.77 38.09 122.35 38.09 122.35 53.26 119.77 53.26 119.77 38.09 119.77 38.09"/><path class="cls-2" d="M130.37,51.35c-2.71,0-3.67-3-3.67-5.9S127.79,40,130.37,40,134,42.66,134,45.45s-1,5.9-3.66,5.9Zm0,2.17c4,0,6.44-3.53,6.44-8.06,0-4.25-2.73-7.63-6.44-7.63s-6.45,3.38-6.45,7.63c0,4.53,2.48,8.06,6.45,8.06Z"/><path class="cls-2" d="M149.75,53.26h-1.88c-2.47-3.49-4.92-7-7.37-10.88h0V53.26h-2.08V38.09h1.88c2.47,3.47,4.92,6.91,7.34,10.81h0V38.09h2.08V53.26Z"/><path class="cls-2" d="M154.69,47.26c.61-2,1.21-3.84,1.76-6.18h0c.61,2.34,1.15,4.18,1.71,6.18Zm1-9.17-5.25,15.18h2.26L154,49.12h4.58l1.19,4.14h2.9l-4.83-15.18Z"/><polygon class="cls-2" points="163.45 38.09 166.03 38.09 166.03 51.22 171.17 51.22 171.17 53.26 163.45 53.26 163.45 38.09 163.45 38.09"/><path class="cls-2" d="M95.34,66v6.26a11.93,11.93,0,0,1-4.31.93c-4.47,0-7.28-3.47-7.28-7.93,0-4.14,2.82-7.76,7.37-7.76a6.5,6.5,0,0,1,3.68,1.17L94,60.42a5.67,5.67,0,0,0-2.77-.8c-2.77,0-4.66,2.19-4.66,5.64S88.69,71,90.92,71a3.81,3.81,0,0,0,1.82-.37V66Z"/><polygon class="cls-2" points="104.65 59.76 100.31 59.76 100.31 63.92 104.56 63.92 104.56 65.95 100.31 65.95 100.31 70.85 105.42 70.85 105.42 72.89 97.7 72.89 97.7 57.72 104.65 57.72 104.65 59.76 104.65 59.76"/><path class="cls-2" d="M112.67,71C110,71,109,68,109,65.09s1.08-5.46,3.67-5.46,3.66,2.67,3.66,5.46-1,5.9-3.66,5.9Zm0,2.17c4,0,6.43-3.53,6.43-8.06,0-4.25-2.73-7.63-6.43-7.63s-6.44,3.38-6.44,7.63c0,4.53,2.47,8.06,6.44,8.06Z"/><path class="cls-2" d="M131.59,66v6.26a11.92,11.92,0,0,1-4.31.93c-4.46,0-7.28-3.47-7.28-7.93,0-4.14,2.82-7.76,7.37-7.76A6.47,6.47,0,0,1,131,58.63l-.85,1.8a5.64,5.64,0,0,0-2.77-.8c-2.78,0-4.66,2.19-4.66,5.64s2.17,5.72,4.4,5.72a3.79,3.79,0,0,0,1.82-.37V66Z"/><path class="cls-2" d="M136.58,59.76h1.15a2.2,2.2,0,0,1,2.4,2.45c0,2-1.23,2.95-2.47,3-.26,0-.87,0-1.08.07V59.76Zm6.59,13.13-3.06-6.28a5.11,5.11,0,0,0,2.63-4.51c0-3-1.8-4.38-4.71-4.38H134V72.89h2.61V67.17h1.17l2.45,5.72Z"/><path class="cls-2" d="M147.46,66.89c.61-2,1.21-3.84,1.76-6.18h0c.61,2.34,1.15,4.18,1.71,6.18Zm1-9.17-5.25,15.18h2.25l1.32-4.14h4.58l1.19,4.14h2.91l-4.84-15.18Z"/><path class="cls-2" d="M160.33,57.72h-4.05V72.89h2.6V67.17H160a5,5,0,0,0,5-5.07c0-3-1.8-4.38-4.71-4.38Zm-.36,7.5-1.09.06V59.76H160a2.2,2.2,0,0,1,2.39,2.45c0,2-1.23,2.95-2.47,3Z"/><polygon class="cls-2" points="177.09 72.89 174.49 72.89 174.49 65.59 169.09 65.59 169.09 72.89 166.51 72.89 166.51 57.72 169.09 57.72 169.09 63.55 174.49 63.55 174.49 57.76 177.09 57.76 177.09 72.89 177.09 72.89"/><polygon class="cls-2" points="179.58 57.72 182.16 57.72 182.16 72.89 179.58 72.89 179.58 57.72 179.58 57.72"/><path class="cls-2" d="M193.87,60.47a5.45,5.45,0,0,0-2.67-.84c-2.65,0-4.57,2.19-4.57,5.64S188.75,71,191.27,71a4.9,4.9,0,0,0,2.6-.76l.72,1.89a6.62,6.62,0,0,1-3.42,1c-4.47,0-7.29-3.47-7.29-7.93,0-4.14,2.79-7.76,7.33-7.76a6.43,6.43,0,0,1,3.49,1.17l-.83,1.84Z"/></g></svg>