<svg id="assets" xmlns="http://www.w3.org/2000/svg" viewBox="0 0 240 110"><defs><style>.cls-1{opacity:0.4;}.cls-2{fill:#181c21;}</style></defs><title>client-logo-nbc</title><g id="g4189" class="cls-1"><path id="path6890" class="cls-2" d="M110.41,41.11V76.37H117V51.29l19.73,25v.08H142V41.12h-6.19V65.4l-4.68-5.87h0l-14.5-18.42h-6.22Z"/><path id="path3533" class="cls-2" d="M201.67,39.68c-10.48.27-19,8.33-19.26,18.44-.26,10.43,8.4,19.07,19.34,19.32a20.13,20.13,0,0,0,16.38-7.64l0,0-3.46-3.15-.31-.28a14.56,14.56,0,0,1-12,5.7c-7.86-.17-14.09-6.28-13.9-13.63s6.72-13.19,14.59-13a14.6,14.6,0,0,1,10.55,4.74h0l.41-.42,3.22-3.31.09-.07a20.15,20.15,0,0,0-14.6-6.62h-1Z"/><path id="path3535" class="cls-2" d="M146.93,41.1V76.38h23.36a10.22,10.22,0,0,0,4.19-19.57,8.35,8.35,0,0,0,5-7.09c.14-4.52-4-8.29-9.23-8.6v0H146.93Zm5.61,5,16,0a4.8,4.8,0,0,1,4,5.13,4.78,4.78,0,0,1-4,4.86h-16v-10Zm0,14.29,17.45,0a5.49,5.49,0,0,1,0,10.73H152.59V60.42Z"/><path id="path3348-8" class="cls-2" d="M55.36,29.6A8.45,8.45,0,0,0,49,32.06a9,9,0,0,0-2.28,9.08c4.1,9.31,8.06,18.7,12.41,27.89,1.94-9.63,2.77-19.62,4.54-29.33A9.22,9.22,0,0,0,62.62,34a9.41,9.41,0,0,0-4.19-3.68A8.39,8.39,0,0,0,55.36,29.6Z"/><path id="path3352-7" class="cls-2" d="M46,45.59,58.61,73.53C50,68,41.08,62.24,32.69,56.45A8.7,8.7,0,1,1,46,45.59"/><path id="path3356-7" class="cls-2" d="M23.6,65.36a8.55,8.55,0,0,0,1.08,8.72A9,9,0,0,0,32,77.41l28.26,0-23.67-16a9.39,9.39,0,0,0-8.35-.54,9.06,9.06,0,0,0-4.63,4.45"/><path id="path6968-9" class="cls-2" d="M74.07,29.6a8.43,8.43,0,0,0-3.08.67A9.41,9.41,0,0,0,66.8,34a9.62,9.62,0,0,0-1.2,4.45H70c.6.11,1.2.39,1,.74h0l0,0a.43.43,0,0,1-.08.1l-.09.08-.22.13h0l-.28.12-.28.1A7.14,7.14,0,0,0,66.37,43l0,0a.7.7,0,0,0-.05.23,1.29,1.29,0,0,0,0,.25v.09s0,0,0,0l0,.26.16,1.05,1.16,7.43v0c0,.05,0,.1,0,.15l.07.47V53C68.4,57.72,69,62.39,69.9,67V67l.18,1.16c.06.28.1.56.16.83v0c4.35-9.19,8.3-18.57,12.4-27.88a9,9,0,0,0-2.28-9.09,8.45,8.45,0,0,0-6.32-2.45Z"/><path id="path6970-1" class="cls-2" d="M83.47,45.59l-12.66,28C79.33,68.05,88,62,96.54,56.12a8.3,8.3,0,0,0,2.77-8.71,8.63,8.63,0,0,0-15.85-1.82"/><path id="path6972-5" class="cls-2" d="M105.82,65.36a8.55,8.55,0,0,1-1.08,8.72,9,9,0,0,1-7.32,3.33l-28.26,0,23.67-16a9.39,9.39,0,0,1,8.35-.54,9.06,9.06,0,0,1,4.63,4.45"/></g></svg>