<svg baseProfile="tiny" xmlns="http://www.w3.org/2000/svg" viewBox="0 0 49.48 56.356"><path fill="#E0BB1E" d="M1 41.808h31.46V55.14H1z"/><path fill="#333" d="M32.46 40.672H1c-.552 0-1 .448-1 1v13.66c0 .55.448 1 1 1h31.46c.554 0 1-.45 1-1V41.67c0-.552-.446-1-1-1zM2 45.225v-2.553h29.46v2.553H2zm29.46 2v2.553H2v-2.553h29.46zM2 51.777h29.46v2.553H2v-2.553z"/><path fill="#E0BB1E" d="M1 32.98h31.46V46.31H1z"/><path fill="#333" d="M32.46 31.843H1c-.552 0-1 .448-1 1v13.66c0 .55.448 1 1 1h31.46c.554 0 1-.45 1-1v-13.66c0-.553-.446-1-1-1zM2 36.395v-2.553h29.46v2.553H2zm29.46 2v2.553H2v-2.553h29.46zM2 42.948h29.46V45.5H2V42.95z"/><path fill="#E0BB1E" d="M34.08 23.212L47.975 52.98 44.2 54.74 30.304 24.975z"/><path fill="#333" d="M49.374 52.874L35.188 22.45c-.25-.535-.857-.78-1.357-.545l-4.297 2.004c-.5.232-.704.855-.455 1.39l14.186 30.424c.25.535.857.778 1.357.544l4.3-2.004c.5-.234.703-.856.454-1.39zm-4.75 1.036L31.342 25.42l2.486-1.16L47.11 52.752l-2.485 1.158z"/><circle fill="#E0BB1E" cx="16.701" cy="15.838" r="15.32"/><ellipse fill="#F2E32A" cx="16.856" cy="15.838" rx="12.35" ry="12.7"/><path fill="#333" d="M16.73 32.342c-8.917 0-16.17-7.254-16.17-16.17S7.814 0 16.73 0C25.647 0 32.9 7.254 32.9 16.17s-7.253 16.172-16.17 16.172zM16.73 2C8.917 2 2.56 8.357 2.56 16.17s6.357 14.172 14.17 14.172 14.17-6.357 14.17-14.17S24.545 2 16.73 2z"/><path fill="#404040" d="M16.73 29.396c-7.29 0-13.224-5.933-13.224-13.225S9.44 2.947 16.73 2.947 29.957 8.88 29.957 16.17c0 7.293-5.933 13.226-13.225 13.226zm0-24.45c-6.188 0-11.224 5.035-11.224 11.225S10.54 27.397 16.73 27.397 27.957 22.36 27.957 16.17 22.92 4.947 16.73 4.947z"/><path fill="#333" d="M21.105 19.02c0-2.236-1.674-3.14-3.374-3.724V11.5c.347.057.704.176 1.12.41.327.182.582.29.8.29.546 0 .946-.418.946-.964 0-.327-.182-.637-.546-.873-.622-.425-1.473-.65-2.32-.727V8.52c0-.554-.446-1-1-1s-1 .446-1 1v1.19c-1.742.306-3.282 1.557-3.282 3.527 0 2.134 1.41 3.01 3.283 3.592v4.128c-.51-.11-1.1-.363-1.555-.736-.31-.255-.546-.346-.818-.346-.546 0-1 .437-1 1 0 .328.182.674.546.946.827.624 1.792.927 2.828 1.027v.973c0 .553.448 1 1 1s1-.447 1-1v-.98c1.815-.24 3.375-1.505 3.375-3.822zm-6.475-5.893c0-.833.48-1.333 1.1-1.552v3.107c-.652-.293-1.1-.753-1.1-1.555zm3.1 7.796v-3.448c.704.323 1.192.797 1.192 1.673 0 .884-.46 1.54-1.19 1.775zM16.73 29.396c-7.29 0-13.224-5.933-13.224-13.225S9.44 2.947 16.73 2.947 29.957 8.88 29.957 16.17c0 7.293-5.933 13.226-13.225 13.226zm0-24.45c-6.188 0-11.224 5.035-11.224 11.225S10.54 27.397 16.73 27.397 27.957 22.36 27.957 16.17 22.92 4.947 16.73 4.947z"/></svg>