<svg baseProfile="tiny" xmlns="http://www.w3.org/2000/svg" viewBox="0 0 43.208 37.468"><path fill="#F5F5F5" d="M1.416 28.407h29.792v7.625H1.416z"/><path fill="#82B541" d="M31.208 28.407H42.04v7.625H31.21z"/><path fill="#404040" d="M37.98 31.356h-2.73c-.552 0-1 .448-1 1s.448 1 1 1h2.73c.55 0 1-.448 1-1s-.45-1-1-1z"/><path fill="#333" d="M42.506 27.935c-.468-.46-1.03-.69-1.69-.69H2.39c-.658 0-1.22.23-1.69.69-.466.46-.7 1.026-.7 1.697v5.447c0 .67.234 1.236.7 1.697.47.46 1.03.69 1.69.69h38.427c.658 0 1.22-.23 1.69-.69.467-.46.7-1.026.7-1.698V29.63c0-.67-.233-1.237-.7-1.697zM2.39 35.277c-.132 0-.198-.066-.198-.197v-5.447c0-.132.066-.197.197-.197h27.777v5.842H2.39zm38.626-.198c0 .13-.066.196-.197.196h-8.653v-5.842h8.652c.13 0 .196.066.196.197v5.45zM4.607 33.136c-.21-.21-.316-.467-.316-.77s.106-.563.317-.78.467-.326.77-.326h17.036c.303 0 .56.11.77.326.21.217.316.477.316.78 0 .303-.107.56-.317.77-.21.21-.467.316-.77.316H5.377c-.303 0-.56-.106-.77-.316z"/><circle fill="#6FC8C7" cx="18.298" cy="10.234" r="9.452"/><path fill="#fff" d="M17.58 3.325c-2.2.137-6.4 1.936-6.554 7.758-.015.567.433 1.038 1 1.053h.027c.554 0 1.01-.442 1.025-1 .138-5.273 4.17-5.728 4.634-5.763.563-.038.99-.524.955-1.088-.035-.565-.51-1-1.088-.96z"/><path fill="#333" d="M33.057 23.655l-7.183-7.183c1.398-1.737 2.24-3.94 2.24-6.338C28.113 4.546 23.567 0 17.98 0S7.846 4.546 7.846 10.134s4.546 10.134 10.134 10.134c2.402 0 4.608-.844 6.346-2.245l7.182 7.182c.214.214.47.32.767.32.298 0 .554-.106.768-.32.214-.214.323-.473.328-.775.005-.303-.1-.56-.313-.775zm-23.16-13.52c0-4.457 3.626-8.082 8.082-8.082s8.08 3.625 8.08 8.08-3.625 8.082-8.08 8.082-8.082-3.625-8.082-8.08z"/><path fill="#82B541" d="M35.635 22.078c-.262 0-.514-.103-.7-.287l-1.87-1.837c-.394-.387-.4-1.02-.012-1.414.388-.395 1.02-.4 1.414-.013L35.56 19.6l3.132-3.787c.352-.426.983-.485 1.408-.133.426.352.485.982.133 1.408l-3.828 4.628c-.178.216-.44.347-.72.36l-.05.002z"/></svg>