<svg baseProfile="tiny" xmlns="http://www.w3.org/2000/svg" viewBox="0 0 48.989 48.669"><circle fill="#6FC8C7" cx="24.788" cy="23.977" r="13.894"/><path fill="#333" d="M24.655 9.335c-8.284 0-15 6.716-15 15 0 8.284 6.716 15 15 15s15-6.716 15-15c0-8.285-6.716-15-15-15zm8.486 20c.27-1.265.44-2.607.5-4h3.986c-.104 1.38-.426 2.72-.96 4H33.15zm-16.97-10c-.27 1.263-.43 2.605-.49 4H11.7c.104-1.382.426-2.723.96-4h3.515zm14.93 0c.3 1.28.48 2.62.54 4h-5.98v-4h5.44zm-5.44-2V11.48c.46.134.91.355 1.35.67.83.585 1.63 1.486 2.3 2.607.468.775.87 1.638 1.206 2.578H25.66zm-5.65-2.58c.678-1.12 1.47-2.022 2.3-2.608.446-.313.898-.534 1.35-.668v5.85h-4.85c.338-.94.74-1.8 1.2-2.58zm3.65 4.58v4h-5.98c.06-1.38.24-2.72.54-4h5.44zm-11 10c-.532-1.28-.853-2.62-.96-4h3.985c.054 1.393.223 2.735.49 4H12.66zm5.025-4h5.98v4h-5.44c-.3-1.28-.48-2.62-.54-4zm5.98 6v5.853c-.46-.133-.91-.355-1.353-.668-.83-.586-1.625-1.487-2.3-2.608-.465-.775-.87-1.638-1.203-2.578h4.85zm5.647 2.578c-.673 1.12-1.467 2.023-2.3 2.61-.443.31-.895.533-1.35.667v-5.856h4.85c-.335.94-.74 1.802-1.202 2.58zm-3.65-4.58v-4h5.98c-.06 1.38-.24 2.72-.54 4h-5.44zm7.98-6c-.054-1.393-.223-2.735-.49-4h3.515c.535 1.28.857 2.62.96 4H33.64zm1.98-6h-3c-.582-1.835-1.387-3.446-2.354-4.73 1.33.636 2.533 1.487 3.585 2.54.67.67 1.26 1.403 1.766 2.19zm-20.15-2.19c1.05-1.053 2.255-1.904 3.584-2.54-.966 1.284-1.77 2.896-2.353 4.73h-3c.504-.787 1.094-1.52 1.766-2.19zm-1.77 16.19H16.7c.582 1.837 1.386 3.448 2.353 4.733-1.33-.637-2.533-1.488-3.585-2.54-.672-.67-1.262-1.403-1.766-2.192zm20.15 2.194c-1.052 1.052-2.256 1.903-3.585 2.54.967-1.285 1.77-2.896 2.354-4.732h2.997c-.504.788-1.095 1.52-1.766 2.192z"/><path fill="#81B441" d="M24.654 6.334c-.553 0-1-.448-1-1V1c0-.552.447-1 1-1s1 .448 1 1v4.334c0 .553-.447 1-1 1zm0 42.336c-.553 0-1-.45-1-1v-4.335c0-.552.447-1 1-1s1 .448 1 1v4.334c0 .55-.447 1-1 1zM47.99 25.334h-4.336c-.553 0-1-.448-1-1s.447-1 1-1h4.335c.55 0 1 .448 1 1s-.45 1-1 1zm-42.656 0H1c-.553 0-1-.448-1-1s.447-1 1-1h4.334c.553 0 1 .448 1 1s-.447 1-1 1zM41.88 41.86c-.256 0-.512-.1-.707-.294L38.11 38.5c-.392-.39-.392-1.023 0-1.413.39-.39 1.022-.39 1.413 0l3.064 3.065c.39.39.39 1.024 0 1.414-.195.195-.45.293-.707.293zm-34.226 0c-.256 0-.512-.1-.707-.294-.39-.39-.39-1.024 0-1.414l3.065-3.065c.39-.39 1.023-.39 1.414 0s.39 1.024 0 1.414L8.36 41.57c-.194.195-.45.293-.706.293zm3.598-29.966c-.256 0-.512-.098-.707-.293L7.48 8.54c-.39-.39-.39-1.023 0-1.414s1.023-.39 1.414 0l3.064 3.064c.39.39.39 1.023 0 1.414-.194.196-.45.294-.706.294zm27.096 0c-.256 0-.512-.098-.707-.293-.39-.39-.39-1.02 0-1.41l3.07-3.06c.39-.39 1.028-.39 1.42 0s.39 1.026 0 1.417l-3.067 3.06c-.196.197-.452.295-.707.295z"/></svg>